<?xml version="1.0" encoding="UTF-8" standalone="no"?><!DOCTYPE svg PUBLIC "-//W3C//DTD SVG 1.1//EN" "http://www.w3.org/Graphics/SVG/1.1/DTD/svg11.dtd"><svg width="100%" height="100%" viewBox="0 0 379 307" version="1.1" xmlns="http://www.w3.org/2000/svg" xmlns:xlink="http://www.w3.org/1999/xlink" xml:space="preserve" xmlns:serif="http://www.serif.com/" style="fill-rule:evenodd;clip-rule:evenodd;stroke-linecap:round;stroke-linejoin:round;stroke-miterlimit:1.5;"><rect id="culotte" x="-105.753" y="-27" width="590" height="355" style="fill:none;"/><path d="M24.587,67.907c68.386,22.847 261.564,21.694 329.99,-1.167c1.245,-0.415 -3.535,100.813 -4.713,107.491c-1.178,6.679 -62.515,7.527 -103.755,69.117c-9.386,14.018 -60.186,62.756 -101.426,1.166c-41.24,-61.59 -114.205,-62.438 -115.383,-69.117c-1.178,-6.678 -5.958,-107.906 -4.713,-107.49Z" style="fill:#fff;"/><clipPath id="_clip1"><path d="M24.587,67.907c68.386,22.847 261.564,21.694 329.99,-1.167c1.245,-0.415 -3.535,100.813 -4.713,107.491c-1.178,6.679 -62.515,7.527 -103.755,69.117c-9.386,14.018 -60.186,62.756 -101.426,1.166c-41.24,-61.59 -114.205,-62.438 -115.383,-69.117c-1.178,-6.678 -5.958,-107.906 -4.713,-107.49Z"/></clipPath><g clip-path="url(#_clip1)"><path d="M224.783,254.829c3.919,2.655 3.897,30.246 0.961,33.491c-2.83,3.127 -8.402,-6.684 -13.486,-4.176c-10.282,5.07 -21.751,24.846 -34.694,10.208c-9.923,-11.222 -13.174,-32.226 -2.589,-43.774c11.883,-12.964 37.785,-20.729 48.168,-2.081" style="fill:#b09dbc;"/></g><path d="M24.587,67.907c68.386,22.847 261.564,21.694 329.99,-1.167c1.245,-0.415 -3.535,100.813 -4.713,107.491c-1.178,6.679 -62.515,7.527 -103.755,69.117c-9.386,14.018 -60.186,62.756 -101.426,1.166c-41.24,-61.59 -114.205,-62.438 -115.383,-69.117c-1.178,-6.678 -5.958,-107.906 -4.713,-107.49Z" style="fill:none;stroke:#321346;stroke-width:4px;stroke-dasharray:48,8,0,0;"/><path d="M25.546,65.827c1.446,0.16 104.385,-2.703 162.335,-2.756c57.951,-0.053 160.408,-4.929 165.121,1.961" style="fill:none;stroke:#321346;stroke-width:4px;stroke-dasharray:48,8,0,0;"/><path d="M30.473,164.838c1.446,0.318 74.663,25.712 87.89,37.791c27.743,25.336 34.973,47.385 36.366,50.777" style="fill:none;stroke:#321346;stroke-width:2px;stroke-dasharray:24,4,0,0;"/><path d="M351.588,164.838c-1.359,0.318 -70.171,25.712 -82.601,37.791c-26.075,25.336 -32.87,47.385 -34.179,50.777" style="fill:none;stroke:#321346;stroke-width:2px;stroke-dasharray:24,4,0,0;"/><path d="M25.733,78.445c0.428,-0.107 74.578,15.101 168.552,14.395c84.93,-0.638 160.485,-18.744 160.699,-18.85" style="fill:none;stroke:#321346;stroke-width:2px;stroke-dasharray:24,4,0,0;"/><path d="M31.699,176.183c1.935,2.01 54.388,48.369 81.309,59.217c26.92,10.847 41.137,21.759 41.202,21.695" style="fill:none;stroke:#321346;stroke-width:4px;stroke-dasharray:48,8,0,0;"/><path d="M349.21,176.183c-1.824,2.01 -51.281,48.369 -76.663,59.217c-25.382,10.847 -38.787,21.759 -38.848,21.695" style="fill:none;stroke:#321346;stroke-width:4px;stroke-dasharray:48,8,0,0;"/></svg>