<?xml version="1.0" encoding="UTF-8" standalone="no"?><!DOCTYPE svg PUBLIC "-//W3C//DTD SVG 1.1//EN" "http://www.w3.org/Graphics/SVG/1.1/DTD/svg11.dtd"><svg width="100%" height="100%" viewBox="0 0 451 450" version="1.1" xmlns="http://www.w3.org/2000/svg" xmlns:xlink="http://www.w3.org/1999/xlink" xml:space="preserve" xmlns:serif="http://www.serif.com/" style="fill-rule:evenodd;clip-rule:evenodd;stroke-linecap:round;stroke-linejoin:round;stroke-miterlimit:1.5;"><rect id="ecriture" x="0.941" y="0" width="450" height="450" style="fill:none;"/><path d="M355.791,173.783l0,-30.4c0,-6.989 -5.673,-12.662 -12.662,-12.662l-229.701,0c-6.988,0 -12.662,5.673 -12.662,12.662l0,134.329c0,6.988 5.674,12.662 12.662,12.662l229.701,0c6.989,0 12.662,-5.674 12.662,-12.662l0,-69.548" style="fill:none;stroke:#321346;stroke-width:4px;"/><path d="M373.264,293.065c0,-1.254 -1.344,-2.272 -2.999,-2.272l-286.553,0c-1.655,0 -2.998,1.018 -2.998,2.272l0.204,16.449c0.905,7.856 15.737,12.013 17.392,12.013l257.244,-0.051c1.655,0 16.216,-1.849 18.502,-11.86l-0.792,-16.551Z" style="fill:none;"/><clipPath id="_clip1"><path d="M373.264,293.065c0,-1.254 -1.344,-2.272 -2.999,-2.272l-286.553,0c-1.655,0 -2.998,1.018 -2.998,2.272l0.204,16.449c0.905,7.856 15.737,12.013 17.392,12.013l257.244,-0.051c1.655,0 16.216,-1.849 18.502,-11.86l-0.792,-16.551Z"/></clipPath><g clip-path="url(#_clip1)"><path d="M266.082,291.905c0,-0.614 -0.365,-1.112 -0.814,-1.112l-77.737,0c-0.449,0 -0.813,0.498 -0.813,1.112l0.055,8.051c0.246,3.845 4.27,5.88 4.719,5.88l69.786,-0.025c0.449,0 4.399,-0.905 5.019,-5.805l-0.215,-8.101Z" style="fill:#b09dbc;stroke:#b09dbc;stroke-width:4px;"/></g><path d="M373.264,293.065c0,-1.254 -1.344,-2.272 -2.999,-2.272l-286.553,0c-1.655,0 -2.998,1.018 -2.998,2.272l0.204,16.449c0.905,7.856 15.737,12.013 17.392,12.013l257.244,-0.051c1.655,0 16.216,-1.849 18.502,-11.86l-0.792,-16.551Z" style="fill:none;stroke:#321346;stroke-width:4px;"/><path d="M337.559,190.706l0,-29.026c0,-6.021 -4.888,-10.91 -10.91,-10.91l-197.918,0c-6.021,0 -10.909,4.889 -10.909,10.91l0,115.743c0,6.021 4.888,10.91 10.909,10.91l197.918,0c6.022,0 10.91,-4.889 10.91,-10.91l0,-52.735" style="fill:none;stroke:#321346;stroke-width:4px;"/><path d="M153.307,177.816l154.444,0" style="fill:none;stroke:#b09dbc;stroke-width:4px;stroke-dasharray:48,8,0,0;"/><path d="M153.307,198.174l154.444,0" style="fill:none;stroke:#b09dbc;stroke-width:4px;stroke-dasharray:48,8,0,0;"/><path d="M153.307,218.532l147.072,0" style="fill:none;stroke:#b09dbc;stroke-width:4px;stroke-dasharray:48,8,0,0;"/><path d="M153.307,239.944l136.542,0" style="fill:none;stroke:#b09dbc;stroke-width:4px;stroke-dasharray:48,8,0,0;"/><path d="M153.307,260.302l154.444,0" style="fill:none;stroke:#b09dbc;stroke-width:4px;stroke-dasharray:48,8,0,0;"/><path d="M311.581,248.177l85.562,-81.701c4.274,-4.082 4.431,-10.866 0.35,-15.14c-4.082,-4.274 -10.866,-4.431 -15.14,-0.349l-85.562,81.701" style="fill:#b09dbc;stroke:#b09dbc;stroke-width:4px;"/><path d="M284.872,259.525l10.915,-25.094l14.592,15.184l-25.507,9.91Z" style="fill:#b09dbc;stroke:#b09dbc;stroke-width:4px;"/><path d="M295.48,233.369c-0.161,0.064 13.637,3.095 16.055,16.463" style="fill:none;stroke:#321346;stroke-width:4px;stroke-dasharray:48,8,0,0;"/></svg>