<?xml version="1.0" encoding="UTF-8" standalone="no"?><!DOCTYPE svg PUBLIC "-//W3C//DTD SVG 1.1//EN" "http://www.w3.org/Graphics/SVG/1.1/DTD/svg11.dtd"><svg width="100%" height="100%" viewBox="0 0 451 450" version="1.1" xmlns="http://www.w3.org/2000/svg" xmlns:xlink="http://www.w3.org/1999/xlink" xml:space="preserve" xmlns:serif="http://www.serif.com/" style="fill-rule:evenodd;clip-rule:evenodd;stroke-linecap:round;stroke-linejoin:round;stroke-miterlimit:1.5;"><rect id="livre" x="0.271" y="0" width="450" height="450" style="fill:none;"/><g><path d="M366.006,143.425c5.051,1.491 7.969,2.496 7.969,2.496c0,0 1.818,114.605 0,170.359c-96.461,-14.679 -145.682,0.68 -145.965,0.46c-0.283,0.22 -51.455,-17.74 -145.965,-0.46c-0.154,-4.717 -0.244,-9.899 -0.161,-7.371c115.342,-17.559 145.173,0.242 145.173,0.242c0,0 47.324,-16.76 138.928,-1.217c1.665,-51.051 0.217,-151.629 0.021,-164.509Z" style="fill:#321346;stroke:#321346;stroke-width:4px;"/><path d="M226.328,140.243c40.354,-38.793 134.324,-3.518 134.324,-3.518c0,0 1.78,111.27 0,165.875c-91.604,-15.543 -133.928,1.218 -133.928,1.218c0,0 -34.831,-17.801 -150.174,-0.242c-1.781,-54.606 0,-166.851 0,-166.851c0,0 109.425,-35.275 149.778,3.518Z" style="fill:none;stroke:#321346;stroke-width:4px;"/><path d="M227.05,150.146l0,140.125" style="fill:none;stroke:#321346;stroke-width:4px;stroke-dasharray:48,8,0,0;"/><g><path d="M164.39,226.139l7.923,-21.412l21.413,-7.924l-21.413,-7.923l-7.923,-21.412l-7.923,21.412l-21.413,7.923l21.413,7.924l7.923,21.412Z" style="fill:none;stroke:#321346;stroke-width:4px;stroke-dasharray:48,8,0,0;"/><path d="M125.904,264.356l4.797,-12.965l12.965,-4.798l-12.965,-4.797l-4.797,-12.965l-4.798,12.965l-12.965,4.797l12.965,4.798l4.798,12.965Z" style="fill:none;stroke:#321346;stroke-width:4px;stroke-dasharray:48,8,0,0;"/></g><path d="M315.036,205.339l6.397,17.287l17.287,6.397l-17.287,6.397l-6.397,17.287l-6.396,-17.287l-17.287,-6.397l17.287,-6.397l6.396,-17.287Z" style="fill:none;stroke:#321346;stroke-width:4px;stroke-dasharray:48,4,0,0;"/><path d="M272.872,183.45l3.925,10.608l10.608,3.925l-10.608,3.925l-3.925,10.608l-3.925,-10.608l-10.608,-3.925l10.608,-3.925l3.925,-10.608Z" style="fill:none;stroke:#321346;stroke-width:4px;stroke-dasharray:48,8,0,0;"/></g></svg>