<?xml version="1.0" encoding="UTF-8" standalone="no"?><!DOCTYPE svg PUBLIC "-//W3C//DTD SVG 1.1//EN" "http://www.w3.org/Graphics/SVG/1.1/DTD/svg11.dtd"><svg width="100%" height="100%" viewBox="0 0 451 450" version="1.1" xmlns="http://www.w3.org/2000/svg" xmlns:xlink="http://www.w3.org/1999/xlink" xml:space="preserve" xmlns:serif="http://www.serif.com/" style="fill-rule:evenodd;clip-rule:evenodd;stroke-linecap:round;stroke-linejoin:round;stroke-miterlimit:1.5;"><rect id="reflux" x="0.127" y="0" width="450" height="450" style="fill:none;"/><path d="M192.521,94.219c31.146,73.841 -71.365,107.967 -71.365,173.27c0,56.945 46.233,103.178 103.178,103.178c56.946,0 103.178,-46.233 103.178,-103.178c0,-65.303 -77.463,-143.399 -134.991,-173.27Z" style="fill:none;"/><clipPath id="_clip1"><path d="M192.521,94.219c31.146,73.841 -71.365,107.967 -71.365,173.27c0,56.945 46.233,103.178 103.178,103.178c56.946,0 103.178,-46.233 103.178,-103.178c0,-65.303 -77.463,-143.399 -134.991,-173.27Z"/></clipPath><g clip-path="url(#_clip1)"><path d="M125.086,245.457c0,0 46.973,-18.02 89.202,1.57c42.229,19.591 100.131,0.871 106.661,-13.496c6.53,-14.366 31.781,166.304 -27.427,164.127c-59.208,-2.176 -214.192,12.626 -208.968,-47.017c5.224,-59.643 40.532,-105.184 40.532,-105.184Z" style="fill:#ebebeb;"/></g><path d="M192.521,94.219c31.146,73.841 -71.365,107.967 -71.365,173.27c0,56.945 46.233,103.178 103.178,103.178c56.946,0 103.178,-46.233 103.178,-103.178c0,-65.303 -77.463,-143.399 -134.991,-173.27Z" style="fill:none;stroke:#321346;stroke-width:4px;stroke-dasharray:48,8,0,0;"/><path d="M171.766,150.679c-12.606,4.888 -16.659,-11.545 -27.836,-12.363c-9.395,-0.687 -17.581,6.382 -18.268,15.778c-0.688,9.395 6.382,17.581 15.777,18.268c11.177,0.818 24.658,-11.912 30.327,-21.683Z" style="fill:none;stroke:#321346;stroke-width:4px;stroke-dasharray:48,8,0,0;"/><path d="M173.082,141.543c-5.669,-5.421 2.242,-10.876 -0.352,-17.668c-1.95,-5.106 -7.679,-7.668 -12.785,-5.718c-5.106,1.951 -7.668,7.68 -5.718,12.786c2.595,6.791 12.326,10.025 18.855,10.6Z" style="fill:none;stroke:#321346;stroke-width:4px;stroke-dasharray:48,8,0,0;"/></svg>