<?xml version="1.0" encoding="UTF-8" standalone="no"?><!DOCTYPE svg PUBLIC "-//W3C//DTD SVG 1.1//EN" "http://www.w3.org/Graphics/SVG/1.1/DTD/svg11.dtd"><svg width="100%" height="100%" viewBox="0 0 264 308" version="1.1" xmlns="http://www.w3.org/2000/svg" xmlns:xlink="http://www.w3.org/1999/xlink" xml:space="preserve" xmlns:serif="http://www.serif.com/" style="fill-rule:evenodd;clip-rule:evenodd;stroke-linecap:round;stroke-linejoin:round;stroke-miterlimit:1.5;"><rect id="serviettes" x="-169.42" y="-26" width="590" height="355" style="fill:none;"/><path d="M63.545,26.712c7.979,-5.94 43.779,-22.88 65.192,-5.165c24.445,20.223 55.839,53.432 88.252,55.556c22.72,1.489 28.432,4.967 35.317,19.067c6.503,13.316 -10.192,34.318 -13.576,58.31c-1.682,11.926 5.609,61.492 9.374,75.234c3.273,11.948 -7.762,40.371 -34.759,56.46c-28.323,16.878 -57.564,10.681 -66.275,1.872c-10.019,-10.131 -50.641,-38.772 -60.468,-45.735c-9.827,-6.962 -49.11,-5.038 -57.286,-17.398c-5.336,-8.066 -9.322,-11.386 1.146,-40.119c11.119,-30.52 1.304,-72.925 -3.987,-104.206c-4.635,-27.402 27.936,-49.935 37.07,-53.876Z" style="fill:none;stroke:#321346;stroke-width:4px;stroke-dasharray:48,8,0,0;"/><path d="M69.49,37.017c7.345,-5.468 40.3,-21.062 60.012,-4.755c22.502,18.616 51.401,52.186 81.238,54.142c20.915,1.37 26.172,1.572 32.51,14.551c5.986,12.258 -12.972,18.102 -12.997,47.676c-0.017,20.562 -0.836,49.105 8.629,77.755c3.577,10.829 -6.645,34.664 -31.497,49.474c-26.072,15.537 -52.989,9.832 -61.008,1.723c-9.222,-9.326 -46.616,-35.691 -55.662,-42.1c-9.046,-6.41 -45.208,-4.638 -52.734,-16.016c-4.911,-7.425 -8.58,-10.481 1.056,-36.931c10.235,-28.094 1.2,-67.129 -3.671,-95.924c-4.267,-25.225 25.716,-45.967 34.124,-49.595Z" style="fill:none;stroke:#321346;stroke-width:2px;stroke-dasharray:24,12,0,0;"/><path d="M46.91,202.845c2.956,-1.707 6.742,-0.692 8.449,2.264c1.707,2.957 0.693,6.743 -2.264,8.45c-2.956,1.707 -6.743,0.692 -8.45,-2.264c-1.706,-2.957 -0.692,-6.743 2.265,-8.45Z" style="fill:none;stroke:#b09dbc;stroke-width:4px;stroke-dasharray:48,8,0,0;"/><path d="M228.321,98.279c2.957,-1.707 6.743,-0.693 8.45,2.264c1.707,2.956 0.692,6.742 -2.264,8.449c-2.957,1.707 -6.743,0.693 -8.45,-2.264c-1.707,-2.956 -0.692,-6.742 2.264,-8.449Z" style="fill:#b09dbc;stroke:#b09dbc;stroke-width:4px;stroke-dasharray:48,8,0,0;"/><path d="M74.081,46.592c0,0 32.983,-18.029 40.935,-5.674c7.953,12.356 104.93,177.23 110.752,189.894c5.325,11.581 -14.007,29.634 -25.026,34.531c-9.75,7.094 -35.05,14.81 -42.418,4.408c-8.056,-11.375 -102.353,-177.796 -109.077,-190.861c-6.724,-13.065 24.065,-32.406 24.834,-32.298Z" style="fill:none;stroke:#b09dbc;stroke-width:2px;stroke-dasharray:24,4,0,0;"/><path d="M99.121,90.855c-3.557,2.68 -5.745,13.969 -2.974,27.963c1.166,5.89 4.391,9.02 6.684,14.283c7.198,16.522 20.759,28.073 30.975,42.491c6.913,9.755 10.218,21.042 16.047,31.323c3.763,6.638 11.748,15.945 20.271,11.148c5.752,-3.237 5.964,-10.923 4.569,-16.536c-3.256,-13.1 -15.538,-20.933 -18.889,-33.526c-2.59,-9.736 1.502,-19.488 -0.325,-29.214c-2.415,-12.854 -14.623,-22.927 -24.929,-29.855c-3.8,-2.554 -10.282,-2.383 -13.058,-6.192c-8.761,-12.022 -14.813,-14.564 -18.371,-11.885Z" style="fill:#b09dbc;"/></svg>