<?xml version="1.0" encoding="UTF-8" standalone="no"?><!DOCTYPE svg PUBLIC "-//W3C//DTD SVG 1.1//EN" "http://www.w3.org/Graphics/SVG/1.1/DTD/svg11.dtd"><svg width="100%" height="100%" viewBox="0 0 451 450" version="1.1" xmlns="http://www.w3.org/2000/svg" xmlns:xlink="http://www.w3.org/1999/xlink" xml:space="preserve" xmlns:serif="http://www.serif.com/" style="fill-rule:evenodd;clip-rule:evenodd;stroke-linecap:round;stroke-linejoin:round;stroke-miterlimit:1.5;"><rect id="video" x="0.271" y="0" width="450" height="450" style="fill:none;"/><path d="M322.867,227.615c0,-13.799 -11.203,-25.003 -25.002,-25.003l-154.777,0c-13.8,0 -25.003,11.204 -25.003,25.003l0,87.302c0,13.8 11.203,25.003 25.003,25.003l154.777,0c13.799,0 25.002,-11.203 25.002,-25.003l0,-87.302Z" style="fill:none;stroke:#321346;stroke-width:4px;"/><path d="M273.444,246.656c0,-6.151 -4.995,-11.146 -11.146,-11.146l-83.643,0c-6.152,0 -11.146,4.995 -11.146,11.146l0,38.918c0,6.152 4.994,11.146 11.146,11.146l83.643,0c6.151,0 11.146,-4.994 11.146,-11.146l0,-38.918Z" style="fill:#b09dbc;stroke:#321346;stroke-width:4px;stroke-dasharray:48,8,0,0;"/><path d="M197.41,310.13c0,-0.739 -0.6,-1.338 -1.338,-1.338l-19.307,0c-0.739,0 -1.339,0.599 -1.339,1.338l0,4.674c0,0.738 0.6,1.338 1.339,1.338l19.307,0c0.738,0 1.338,-0.6 1.338,-1.338l0,-4.674Z" style="fill:#321346;"/><path d="M230.073,310.13c0,-0.739 -0.6,-1.338 -1.339,-1.338l-19.307,0c-0.739,0 -1.338,0.599 -1.338,1.338l0,4.674c0,0.738 0.599,1.338 1.338,1.338l19.307,0c0.739,0 1.339,-0.6 1.339,-1.338l0,-4.674Z" style="fill:#321346;"/><path d="M264.937,310.13c0,-0.739 -0.6,-1.338 -1.338,-1.338l-19.307,0c-0.739,0 -1.339,0.599 -1.339,1.338l0,4.674c0,0.738 0.6,1.338 1.339,1.338l19.307,0c0.738,0 1.338,-0.6 1.338,-1.338l0,-4.674Z" style="fill:#321346;"/><circle cx="154.77" cy="159.124" r="43.122" style="fill:none;stroke:#321346;stroke-width:4px;"/><circle cx="154.77" cy="159.124" r="11.927" style="fill:#b09dbc;stroke:#321346;stroke-width:4px;stroke-dasharray:48,8,0,0;"/><circle cx="258.093" cy="142.242" r="60.003" style="fill:none;stroke:#321346;stroke-width:4px;"/><circle cx="258.093" cy="142.242" r="21.469" style="fill:#b09dbc;stroke:#321346;stroke-width:4px;stroke-dasharray:48,8,0,0;"/><path d="M323.494,230.048l68.306,-28.353l0,124.764l-67.942,-27.288" style="fill:none;stroke:#321346;stroke-width:4px;"/><path d="M86.993,227.389l-26.468,-14.971l0,65.876l26.328,-14.409" style="fill:none;stroke:#321346;stroke-width:4px;"/><path d="M116.169,226.731l-29.726,0l0,38.167l29.726,0" style="fill:none;stroke:#321346;stroke-width:4px;"/></svg>