<?xml version="1.0" encoding="UTF-8" standalone="no"?><!DOCTYPE svg PUBLIC "-//W3C//DTD SVG 1.1//EN" "http://www.w3.org/Graphics/SVG/1.1/DTD/svg11.dtd"><svg width="100%" height="100%" viewBox="0 0 296 540" version="1.1" xmlns="http://www.w3.org/2000/svg" xmlns:xlink="http://www.w3.org/1999/xlink" xml:space="preserve" xmlns:serif="http://www.serif.com/" style="fill-rule:evenodd;clip-rule:evenodd;stroke-linecap:round;stroke-linejoin:round;stroke-miterlimit:1.5;"><path d="M205.313,182.738c0,0 12.417,39.925 -19.583,42.592c-32,2.667 -30.667,-45.342 -30.667,-45.342c0,0 5,-22.25 20.5,-23c15.5,-0.75 29.75,25.75 29.75,25.75Z" style="fill:#b09dbc;stroke:#321346;stroke-width:14.69px;"/><path d="M62.086,264.8c0,-0 -12.593,-27.058 -21.52,-34.306c-5.599,-4.546 -13.836,-3.691 -18.382,1.907c-4.545,5.599 -3.691,13.835 1.908,18.381c8.927,7.249 37.994,14.018 37.994,14.018Z" style="fill:#b09dbc;stroke:#321346;stroke-width:14.69px;stroke-dasharray:176.32,29.39,0,0;"/><path d="M85.501,293.034c0,0 -27.795,-10.867 -39.258,-9.943c-7.188,0.58 -12.554,6.887 -11.974,14.076c0.58,7.189 6.887,12.554 14.076,11.974c11.462,-0.924 37.156,-16.107 37.156,-16.107Z" style="fill:#b09dbc;stroke:#321346;stroke-width:14.69px;stroke-dasharray:176.32,29.39,0,0;"/><path d="M87.954,292.469c0,0 18.443,-23.464 20.873,-34.704c1.524,-7.049 -2.962,-14.009 -10.011,-15.533c-7.049,-1.524 -14.009,2.961 -15.533,10.01c-2.43,11.24 4.671,40.227 4.671,40.227Z" style="fill:#b09dbc;stroke:#321346;stroke-width:14.69px;stroke-dasharray:176.32,29.39,0,0;"/><path d="M119.976,390.033c0,0 26.873,-12.983 33.992,-22.014c4.464,-5.664 3.491,-13.887 -2.173,-18.351c-5.664,-4.465 -13.887,-3.491 -18.352,2.173c-7.119,9.031 -13.467,38.192 -13.467,38.192Z" style="fill:#b09dbc;stroke:#321346;stroke-width:14.69px;stroke-dasharray:176.32,29.39,0,0;"/><path d="M170.173,424.451c-0,0 55.603,1.614 75.137,-7.208c12.251,-5.532 17.706,-19.97 12.173,-32.221c-5.532,-12.251 -19.97,-17.706 -32.221,-12.173c-19.534,8.821 -55.089,51.602 -55.089,51.602Z" style="fill:#b09dbc;stroke:#321346;stroke-width:14.69px;stroke-dasharray:176.32,29.39,0,0;"/><path d="M105.726,340.283c0,0 26.873,-12.983 33.992,-22.014c4.464,-5.664 3.491,-13.887 -2.173,-18.351c-5.664,-4.465 -13.887,-3.491 -18.352,2.173c-7.119,9.031 -13.467,38.192 -13.467,38.192Z" style="fill:#b09dbc;stroke:#321346;stroke-width:14.69px;stroke-dasharray:176.32,29.39,0,0;"/><path d="M116.749,392.806c-0,-0 -28.994,7.074 -40.232,4.632c-7.047,-1.53 -11.526,-8.495 -9.995,-15.543c1.531,-7.047 8.495,-11.526 15.543,-9.995c11.237,2.441 34.684,20.906 34.684,20.906Z" style="fill:#b09dbc;stroke:#321346;stroke-width:14.69px;stroke-dasharray:176.32,29.39,0,0;"/><path d="M101.007,345.019c0,-0 -28.984,7.116 -40.225,4.692c-7.049,-1.52 -11.539,-8.478 -10.018,-15.528c1.52,-7.05 8.478,-11.539 15.528,-10.019c11.241,2.424 34.715,20.855 34.715,20.855Z" style="fill:#b09dbc;stroke:#321346;stroke-width:14.69px;stroke-dasharray:176.32,29.39,0,0;"/><path d="M145.396,254.405c0,0 -32.583,-58.167 -11.833,-68.417c20.75,-10.25 47.25,28.25 47.25,28.25" style="fill:#b09dbc;stroke:#321346;stroke-width:14.69px;"/><path d="M195.48,340.08c-0,0 77.583,-110.333 35.333,-160.167c-5.575,-6.575 -23.75,2.5 -28,8.25c-4.25,5.75 -14.329,19.676 -20,28.75c-1.25,2 -5.75,16.75 -32.25,23.5c-26.5,6.75 27.667,59.592 44.917,99.667Z" style="fill:#b09dbc;stroke:#321346;stroke-width:14.69px;"/><path d="M195.98,333.03c5.889,58.333 -43.459,97.07 -64,156.333c-31.667,-105.45 -9.834,-152.283 -69.167,-223.95" style="fill:none;stroke:#321346;stroke-width:14.69px;"/></svg>