<?xml version="1.0" encoding="UTF-8" standalone="no"?><!DOCTYPE svg PUBLIC "-//W3C//DTD SVG 1.1//EN" "http://www.w3.org/Graphics/SVG/1.1/DTD/svg11.dtd"><svg width="100%" height="100%" viewBox="0 0 312 540" version="1.1" xmlns="http://www.w3.org/2000/svg" xmlns:xlink="http://www.w3.org/1999/xlink" xml:space="preserve" xmlns:serif="http://www.serif.com/" style="fill-rule:evenodd;clip-rule:evenodd;stroke-linecap:round;stroke-linejoin:round;stroke-miterlimit:1.5;"><path d="M163.741,119.888c-0,-0 -99.59,120.094 -142.449,406.168" style="fill:none;stroke:#321346;stroke-width:12px;"/><path d="M157.644,127.8c-0,-0 51.445,-21.124 65.904,-37.062c8.867,-9.773 8.13,-24.907 -1.644,-33.774c-9.773,-8.866 -24.907,-8.13 -33.774,1.644c-14.458,15.938 -30.486,69.192 -30.486,69.192Z" style="fill:#b09dbc;stroke:#321346;stroke-width:12px;stroke-dasharray:144,24,0,0;"/><path d="M132.608,168.238c0,-0 52.927,17.076 74.258,14.236c13.081,-1.741 22.287,-13.775 20.546,-26.856c-1.741,-13.081 -13.775,-22.287 -26.856,-20.546c-21.331,2.84 -67.948,33.166 -67.948,33.166Z" style="fill:#b09dbc;stroke:#321346;stroke-width:12px;stroke-dasharray:144,24,0,0;"/><path d="M130.14,164.54c-0,-0 -32.584,-45.068 -36.47,-66.233c-2.384,-12.979 6.219,-25.452 19.199,-27.835c12.979,-2.383 25.451,6.22 27.834,19.199c3.886,21.166 -10.563,74.869 -10.563,74.869Z" style="fill:#b09dbc;stroke:#321346;stroke-width:12px;"/><path d="M99.414,242.071c0,0 53.985,6.915 73.995,0.35c12.271,-4.026 18.965,-17.257 14.939,-29.528c-4.025,-12.271 -17.257,-18.965 -29.528,-14.939c-20.01,6.565 -59.406,44.117 -59.406,44.117Z" style="fill:#b09dbc;stroke:#321346;stroke-width:12px;"/><path d="M88.191,238.86c-0,0 -34.16,-42.371 -39.045,-62.856c-2.996,-12.562 4.771,-25.193 17.334,-28.189c12.562,-2.996 25.193,4.771 28.189,17.333c4.885,20.486 -6.478,73.712 -6.478,73.712Z" style="fill:#b09dbc;stroke:#321346;stroke-width:12px;stroke-dasharray:144,24,0,0;"/><path d="M69.011,326.95c-0,-0 52.016,-4.163 69.495,-14.271c10.719,-6.198 14.39,-19.933 8.191,-30.652c-6.198,-10.719 -19.933,-14.389 -30.652,-8.191c-17.479,10.108 -47.034,53.114 -47.034,53.114Z" style="fill:#b09dbc;stroke:#321346;stroke-width:12px;stroke-dasharray:144,24,0,0;"/><path d="M65.265,316.524c-0,-0 -39.273,-34.361 -47.277,-52.898c-4.908,-11.368 0.336,-24.582 11.704,-29.49c11.368,-4.909 24.582,0.336 29.49,11.704c8.004,18.537 6.083,70.684 6.083,70.684Z" style="fill:#b09dbc;stroke:#321346;stroke-width:12px;"/><path d="M221.006,299.768c-0,0 -114.786,73.137 -200.066,226.579" style="fill:none;stroke:#321346;stroke-width:12px;"/><path d="M212.647,305.235c-0,0 55.53,-3.032 74.425,-13.33c11.588,-6.314 15.869,-20.849 9.554,-32.436c-6.315,-11.587 -20.849,-15.868 -32.437,-9.553c-18.895,10.297 -51.542,55.319 -51.542,55.319Z" style="fill:#b09dbc;stroke:#321346;stroke-width:12px;stroke-dasharray:144,24,0,0;"/><path d="M175.706,335.193c0,-0 44.369,33.529 65.448,37.862c12.926,2.657 25.577,-5.681 28.234,-18.607c2.657,-12.926 -5.68,-25.577 -18.607,-28.234c-21.078,-4.333 -75.075,8.979 -75.075,8.979Z" style="fill:#b09dbc;stroke:#321346;stroke-width:12px;stroke-dasharray:144,24,0,0;"/><path d="M174.591,330.889c0,-0 -15.953,-53.276 -12.664,-74.542c2.018,-13.042 14.243,-21.992 27.285,-19.974c13.041,2.017 21.991,14.243 19.973,27.284c-3.289,21.266 -34.594,67.232 -34.594,67.232Z" style="fill:#b09dbc;stroke:#321346;stroke-width:12px;"/><path d="M120.081,394.006c-0,-0 48.709,24.281 69.765,24.661c12.912,0.233 23.585,-10.061 23.818,-22.974c0.232,-12.912 -10.062,-23.584 -22.974,-23.817c-21.056,-0.38 -70.609,22.13 -70.609,22.13Z" style="fill:#b09dbc;stroke:#321346;stroke-width:12px;"/><path d="M110.537,387.283c0,-0 -18.328,-51.248 -16.205,-72.2c1.301,-12.849 12.79,-22.224 25.638,-20.922c12.849,1.302 22.224,12.79 20.922,25.639c-2.122,20.952 -30.355,67.483 -30.355,67.483Z" style="fill:#b09dbc;stroke:#321346;stroke-width:12px;stroke-dasharray:144,24,0,0;"/><path d="M63.458,464.167c-0,-0 50.492,13.173 70.323,9.375c12.162,-2.329 20.144,-14.094 17.815,-26.255c-2.329,-12.161 -14.093,-20.143 -26.254,-17.814c-19.832,3.798 -61.884,34.694 -61.884,34.694Z" style="fill:#b09dbc;stroke:#321346;stroke-width:12px;stroke-dasharray:144,24,0,0;"/><path d="M63.349,453.089c-0,0 -25.791,-45.363 -27.255,-65.502c-0.897,-12.349 8.401,-23.104 20.75,-24.002c12.35,-0.897 23.105,8.401 24.002,20.75c1.464,20.139 -17.497,68.754 -17.497,68.754Z" style="fill:#b09dbc;stroke:#321346;stroke-width:12px;"/></svg>