<?xml version="1.0" encoding="UTF-8" standalone="no"?><!DOCTYPE svg PUBLIC "-//W3C//DTD SVG 1.1//EN" "http://www.w3.org/Graphics/SVG/1.1/DTD/svg11.dtd"><svg width="100%" height="100%" viewBox="0 0 590 355" version="1.1" xmlns="http://www.w3.org/2000/svg" xmlns:xlink="http://www.w3.org/1999/xlink" xml:space="preserve" xmlns:serif="http://www.serif.com/" style="fill-rule:evenodd;clip-rule:evenodd;stroke-linecap:round;stroke-linejoin:round;stroke-miterlimit:1.5;"><rect id="nouvellelune" x="0" y="0" width="590" height="355" style="fill:none;"/><path d="M497.971,142.207l5.942,16.058l16.058,5.942l-16.058,5.942l-5.942,16.058l-5.942,-16.058l-16.058,-5.942l16.058,-5.942l5.942,-16.058Z" style="fill:none;stroke:#321346;stroke-width:2px;"/><path d="M89.221,112.707l7.36,19.89l19.89,7.36l-19.89,7.36l-7.36,19.89l-7.36,-19.89l-19.89,-7.36l19.89,-7.36l7.36,-19.89Z" style="fill:none;stroke:#321346;stroke-width:2px;"/><path d="M128.471,158.207l4.457,12.043l12.043,4.457l-12.043,4.456l-4.457,12.044l-4.456,-12.044l-12.044,-4.456l12.044,-4.457l4.456,-12.043Z" style="fill:none;stroke:#321346;stroke-width:2px;"/><path d="M475.221,192.707l6.01,16.24l16.24,6.01l-16.24,6.009l-6.01,16.241l-6.009,-16.241l-16.241,-6.009l16.241,-6.01l6.009,-16.24Z" style="fill:none;stroke:#321346;stroke-width:2px;"/><path d="M115.471,202.207l4.997,13.503l13.503,4.997l-13.503,4.997l-4.997,13.503l-4.997,-13.503l-13.503,-4.997l13.503,-4.997l4.997,-13.503Z" style="fill:none;stroke:#321346;stroke-width:2px;"/><path d="M462.471,112.207l3.646,9.854l9.854,3.646l-9.854,3.646l-3.646,9.854l-3.646,-9.854l-9.854,-3.646l9.854,-3.646l3.646,-9.854Z" style="fill:none;stroke:#321346;stroke-width:2px;"/><g><circle cx="297.999" cy="177.309" r="93.107" style="fill:none;stroke:#321346;stroke-width:2px;"/><circle cx="297.999" cy="177.309" r="121.97" style="fill:none;stroke:#321346;stroke-width:3px;"/></g></svg>