<?xml version="1.0" encoding="UTF-8" standalone="no"?><!DOCTYPE svg PUBLIC "-//W3C//DTD SVG 1.1//EN" "http://www.w3.org/Graphics/SVG/1.1/DTD/svg11.dtd"><svg width="100%" height="100%" viewBox="0 0 306 308" version="1.1" xmlns="http://www.w3.org/2000/svg" xmlns:xlink="http://www.w3.org/1999/xlink" xml:space="preserve" xmlns:serif="http://www.serif.com/" style="fill-rule:evenodd;clip-rule:evenodd;stroke-linecap:round;stroke-linejoin:round;stroke-miterlimit:1.5;"><rect id="coupe" x="-255.747" y="-25" width="590" height="355" style="fill:none;"/><path d="M180.571,246.948c-2.049,7.332 8.254,18.881 21.838,13.215c7.393,-3.084 10.03,-9.824 8.097,-17.21c-0.582,-2.223 -1.65,-6.104 -4.296,-6.759" style="fill:#fff;stroke:#321346;stroke-width:4px;stroke-dasharray:48,8,0,0;"/><path d="M69.404,84.369c0.442,-0.724 -24.073,7.764 -20.67,19.926c3.403,12.161 18.653,11.07 20.355,19.333c1.701,8.264 45.5,144.191 120.052,124.764c74.552,-19.427 24.987,-156.508 18.055,-168.981c-6.932,-12.474 -0.221,-17.837 2.552,-24.167c2.773,-6.33 -10.302,-14.779 -30.564,-8.731c-21.719,6.483 -111.229,40.226 -109.78,37.856Z" style="fill:#fff;"/><clipPath id="_clip1"><path d="M69.404,84.369c0.442,-0.724 -24.073,7.764 -20.67,19.926c3.403,12.161 18.653,11.07 20.355,19.333c1.701,8.264 45.5,144.191 120.052,124.764c74.552,-19.427 24.987,-156.508 18.055,-168.981c-6.932,-12.474 -0.221,-17.837 2.552,-24.167c2.773,-6.33 -10.302,-14.779 -30.564,-8.731c-21.719,6.483 -111.229,40.226 -109.78,37.856Z"/></clipPath><g clip-path="url(#_clip1)"><path d="M63.512,130.27c-0.202,0 1.84,4.516 1.953,4.723c2.184,4 5.143,7.745 8.965,10.293c9.159,6.104 22.841,2.593 29.81,-5.335c4.239,-4.824 7.346,-10.521 11.696,-15.274c9.446,-10.319 21.531,-16.355 35.665,-14.26c14.626,2.167 30.307,16.093 45.479,11.439c11.412,-3.501 16.918,-17.22 20.653,-27.4c0.654,-1.785 2.649,-13.017 7.089,-11.111c4.362,1.871 6.941,7.103 8.883,11.062c4.862,9.908 8.351,20.508 11.441,31.077c12.67,43.334 18.687,96.058 -11.814,133.845c-4.621,5.726 -10.214,10.649 -16.552,14.396c-49.111,29.034 -106.381,-12.06 -130.665,-54.639c-11.483,-20.135 -18.339,-42.581 -23.462,-65.074c-1.62,-7.115 -3.177,-14.277 -4.267,-21.495c-0.371,-2.454 -0.759,-4.927 -0.859,-7.409c-0.047,-1.176 5.985,5.162 5.985,5.162Z" style="fill:#b09dbc;"/></g><path d="M69.404,84.369c0.442,-0.724 -24.073,7.764 -20.67,19.926c3.403,12.161 18.653,11.07 20.355,19.333c1.701,8.264 45.5,144.191 120.052,124.764c74.552,-19.427 24.987,-156.508 18.055,-168.981c-6.932,-12.474 -0.221,-17.837 2.552,-24.167c2.773,-6.33 -10.302,-14.779 -30.564,-8.731c-21.719,6.483 -111.229,40.226 -109.78,37.856Z" style="fill:none;stroke:#321346;stroke-width:4px;stroke-dasharray:48,8,0,0;"/><path d="M61.007,90.367c-3.169,5.481 37.802,-6.688 69.368,-17.973c36.287,-12.972 61.71,-24.135 55.755,-26.1c-5.956,-1.964 -117.787,31.384 -125.123,44.073Z" style="fill:#fff;stroke:#321346;stroke-width:4px;stroke-dasharray:48,8,0,0;"/></svg>