<?xml version="1.0" encoding="UTF-8" standalone="no"?><!DOCTYPE svg PUBLIC "-//W3C//DTD SVG 1.1//EN" "http://www.w3.org/Graphics/SVG/1.1/DTD/svg11.dtd"><svg width="100%" height="100%" viewBox="0 0 451 450" version="1.1" xmlns="http://www.w3.org/2000/svg" xmlns:xlink="http://www.w3.org/1999/xlink" xml:space="preserve" xmlns:serif="http://www.serif.com/" style="fill-rule:evenodd;clip-rule:evenodd;stroke-linecap:round;stroke-linejoin:round;stroke-miterlimit:1.5;"><rect id="dessin" x="0.941" y="0" width="450" height="450" style="fill:none;"/><g><path d="M200.829,241.019c1.049,0.683 -26.457,-18.055 -2.104,-56.895c24.304,36.851 1.749,56.664 2.104,56.895Z" style="fill:none;stroke:#b09dbc;stroke-width:4px;"/><path d="M208.564,246.183c0.473,1.069 -11.535,-27.435 26.95,-35.521c0.413,37.386 -27.11,35.16 -26.95,35.521Z" style="fill:none;stroke:#b09dbc;stroke-width:4px;"/><path d="M190.331,246.676c-0.469,1.071 11.414,-27.485 -27.105,-35.403c-0.25,37.387 27.263,35.042 27.105,35.403Z" style="fill:none;stroke:#b09dbc;stroke-width:4px;"/><path d="M190.191,203.173c-3.727,-3.786 -9.254,-7.383 -17.31,-10.372c-0.999,6.222 -1.129,14.89 -0.519,19.281" style="fill:none;stroke:#b09dbc;stroke-width:4px;stroke-dasharray:48,8,0,0;"/><path d="M208.037,201.639c3.726,-2.802 10.774,-6.126 17.367,-8.221c0.782,6.98 0.327,15.891 -0.739,20.529" style="fill:none;stroke:#b09dbc;stroke-width:4px;stroke-dasharray:48,8,0,0;"/><path d="M187.964,247.818c-0.558,0.069 5.5,0.698 11.125,0.759c5.625,0.061 11.628,-1.4 11.572,-1.475c-2.182,-2.963 -6.367,-3.584 -3.259,-15.95c-4.116,4.972 -8.654,9.691 -8.712,9.602c-0.057,-0.089 -7.224,-8.629 -7.198,-8.467c0.025,0.162 -0.983,15.217 -3.528,15.531Z" style="fill:#b09dbc;"/></g><path d="M287.291,194.856l0,-81.862c0,-5.054 -4.103,-9.157 -9.157,-9.157l-158.876,0c-5.053,0 -9.156,4.103 -9.156,9.157l0,215.32c0,5.053 4.103,9.156 9.156,9.156l158.876,0c5.054,0 9.157,-4.103 9.157,-9.156l0,-91.532" style="fill:none;stroke:#321346;stroke-width:4px;stroke-dasharray:48,8,0,0;"/><path d="M282.969,202.028c1.797,-0.992 96.844,-84.203 112.653,-91.699c1.115,-0.528 5.382,2.66 3.602,5.394c-13.897,21.346 -104.517,98.42 -104.3,98.35" style="fill:none;stroke:#321346;stroke-width:4px;"/><path d="M245.875,252.297c10.904,-16.736 34.983,-10.033 44.03,-19.826c7.074,-7.657 6.6,-19.616 -1.056,-26.689c-7.657,-7.074 -19.616,-6.601 -26.689,1.056c-9.048,9.793 -14.748,31.463 -16.285,45.459Z" style="fill:none;"/><clipPath id="_clip1"><path d="M245.875,252.297c10.904,-16.736 34.983,-10.033 44.03,-19.826c7.074,-7.657 6.6,-19.616 -1.056,-26.689c-7.657,-7.074 -19.616,-6.601 -26.689,1.056c-9.048,9.793 -14.748,31.463 -16.285,45.459Z"/></clipPath><g clip-path="url(#_clip1)"><path d="M247.689,224.728c1.257,-0.574 2.252,-1.37 3.375,-2.191c0.613,-0.448 1.275,-0.833 1.956,-1.17c6.626,-3.278 1.54,5.852 4.083,7.53c1.247,0.823 3.847,-0.978 4.879,-1.489c2.195,-1.086 4.632,-0.023 6.126,1.702c1.294,1.494 -0.24,4.406 0.129,6.232c0.505,2.5 2.828,4.421 3.159,6.934c0.45,3.411 -2.568,8.81 -5.416,10.657c-2.592,1.68 -5.635,2.099 -8.318,3.552c-4.081,2.21 -10.074,8.474 -14.551,3.446c-4.803,-5.396 -3.71,-13.538 -4.083,-20.186c-0.25,-4.45 0.218,-8.117 2.643,-11.975c0.825,-1.311 2.068,-2.743 3.31,-3.68c0.192,-0.144 2.214,-0.997 2.214,-1.021" style="fill:#b09dbc;"/></g><path d="M245.875,252.297c10.904,-16.736 34.983,-10.033 44.03,-19.826c7.074,-7.657 6.6,-19.616 -1.056,-26.689c-7.657,-7.074 -19.616,-6.601 -26.689,1.056c-9.048,9.793 -14.748,31.463 -16.285,45.459Z" style="fill:none;stroke:#321346;stroke-width:4px;"/></svg>