<?xml version="1.0" encoding="UTF-8" standalone="no"?><!DOCTYPE svg PUBLIC "-//W3C//DTD SVG 1.1//EN" "http://www.w3.org/Graphics/SVG/1.1/DTD/svg11.dtd"><svg width="100%" height="100%" viewBox="0 0 451 450" version="1.1" xmlns="http://www.w3.org/2000/svg" xmlns:xlink="http://www.w3.org/1999/xlink" xml:space="preserve" xmlns:serif="http://www.serif.com/" style="fill-rule:evenodd;clip-rule:evenodd;stroke-linecap:round;stroke-linejoin:round;stroke-miterlimit:1.5;"><rect id="foetus" x="0.127" y="0" width="450" height="450" style="fill:none;"/><path d="M191.848,74.422c84.346,-31.646 163.767,74.354 163.767,152.296c0,77.941 -48.567,141.219 -108.387,141.219c-59.821,0 -137.264,17.814 -137.264,-60.127c0,-8.156 33.482,-58.245 59.406,-49.52c7.031,2.367 52.082,20.598 51.734,14.858c-0.264,-4.352 11.201,-1.003 -1.192,-11.014c-12.491,-10.09 -48.843,-33.527 -49.423,-34.232c-67.644,-82.28 -26.395,-135.564 21.359,-153.48Z" style="fill:#ebebeb;"/><path d="M192.243,199.761c0,0 -10.285,4.747 -11.076,1.187c-0.791,-3.56 1.582,-12.263 -3.165,-15.032c-4.746,-2.769 -26.503,-14.241 -28.481,-36.393c-1.978,-22.152 -0.395,-57.358 40.349,-68.829c40.744,-11.472 78.323,-0.396 89.004,76.345c31.25,23.339 87.026,73.729 48.26,157.043c-38.767,83.314 -130.747,55.705 -141.616,11.319c-0.712,-2.909 -9.114,-17.535 -8.297,-13.278c2.948,15.344 -9.837,41.124 -11.545,44.953c-4.305,9.652 -39.953,-9.334 -45.143,-18.205c-2.457,-4.2 5.079,-22.876 12.193,-25.805c5.534,-2.278 10.814,10.909 10.94,9.571c4.88,-51.75 32.074,-57.216 40.666,-56.572c15.823,1.187 23.734,13.45 30.063,11.867c6.329,-1.582 7.516,-1.977 1.582,-7.911c-5.933,-5.934 -51.028,-43.909 -84.652,-29.668c-33.624,14.241 -64.083,-7.12 -68.83,9.494c-4.747,16.614 15.104,59.129 37.711,86.894c24.03,29.512 72.928,53.552 150.582,46.018c85.916,-8.334 121.045,-73.181 125.792,-135.286c3.106,-40.633 -7.12,-171.691 -154.273,-182.755c-147.154,-11.064 -174.844,145.188 -149.923,161.406c24.921,16.219 30.855,8.703 49.843,6.329c18.987,-2.373 43.908,-1.186 54.984,5.934c11.076,7.12 43.118,23.734 46.678,32.041c7.12,-1.582 36.393,-3.56 39.953,-7.911c3.56,-4.351 -29.668,7.911 -41.14,-2.374c-11.471,-10.284 -25.712,-15.427 -30.459,-21.361c-4.747,-5.933 -5.934,-5.538 -4.747,-11.076c1.187,-5.538 2.374,-13.449 6.725,-14.24c4.351,-0.791 13.054,0.395 17.405,3.956c4.351,3.56 -0.791,9.889 6.725,13.449c7.516,3.56 20.57,8.307 22.943,4.351c2.374,-3.955 -13.054,-22.152 -0.791,-37.579c-19.779,20.174 -24.921,22.548 -32.437,13.845c-7.516,-8.703 -8.703,-1.582 -11.076,-4.351c-2.373,-2.769 -4.747,-7.376 -4.747,-7.376Z" style="fill:#fff;stroke:#321346;stroke-width:4px;stroke-dasharray:48,8,0,0;"/></svg>