<?xml version="1.0" encoding="UTF-8" standalone="no"?><!DOCTYPE svg PUBLIC "-//W3C//DTD SVG 1.1//EN" "http://www.w3.org/Graphics/SVG/1.1/DTD/svg11.dtd"><svg width="100%" height="100%" viewBox="0 0 451 450" version="1.1" xmlns="http://www.w3.org/2000/svg" xmlns:xlink="http://www.w3.org/1999/xlink" xml:space="preserve" xmlns:serif="http://www.serif.com/" style="fill-rule:evenodd;clip-rule:evenodd;stroke-linecap:round;stroke-linejoin:round;stroke-miterlimit:1.5;"><rect id="metaplasique" x="0.46" y="0" width="450" height="450" style="fill:none;"/><path d="M232.817,120.899c0,0 -46.295,-52.573 -59.635,-52.573c-13.339,0 -71.404,25.894 -80.035,35.31c-8.632,9.416 -19.617,69.835 -14.124,81.605c5.492,11.77 40.018,78.466 49.434,76.112c9.415,-2.354 77.681,-32.171 80.82,-42.372c3.138,-10.2 23.54,-98.082 23.54,-98.082Z" style="fill:#fff;stroke:#321346;stroke-width:4px;stroke-dasharray:48,8,0,0;"/><path d="M207.707,218.197c0,0 15.694,-97.298 28.248,-99.652c12.555,-2.354 98.083,-32.172 107.499,-16.478c9.416,15.693 45.51,92.59 40.018,99.652c-5.493,7.062 -14.909,47.864 -14.909,47.864c0,0 -82.389,33.741 -91.805,32.956c-9.416,-0.785 -65.127,-48.649 -69.051,-64.342Z" style="fill:#fff;stroke:#321346;stroke-width:4px;stroke-dasharray:48,8,0,0;"/><path d="M210.061,221.335c0,0 -80.82,32.956 -86.312,46.295c-5.493,13.34 -9.416,58.85 -3.924,67.481c5.493,8.632 30.602,49.434 58.065,50.219c27.463,0.784 85.528,-17.263 89.452,-24.325c3.923,-7.062 27.463,-69.05 10.985,-78.466c-16.478,-9.416 -43.156,-64.342 -68.266,-61.204Z" style="fill:#fff;stroke:#321346;stroke-width:4px;stroke-dasharray:48,8,0,0;"/><path d="M275.652,230.604c-8.722,-8.114 -17.335,-33.749 3.414,-46.126c20.75,-12.376 41.683,-15.13 51.161,-10.041c9.478,5.088 19.716,26.834 15.275,36.411c-4.442,9.577 -52.326,36.055 -69.85,19.756Z" style="fill:#ebebeb;stroke:#321346;stroke-width:4px;stroke-dasharray:48,8,0,0;"/><path d="M128.343,177.574c-9.834,-2.38 -26.875,-17.78 -16.658,-35.575c10.217,-17.796 24.572,-28.542 33.707,-28.716c9.135,-0.175 25.762,11.669 26.456,20.608c0.694,8.939 -23.75,48.463 -43.505,43.683Z" style="fill:#ebebeb;stroke:#321346;stroke-width:4px;stroke-dasharray:48,8,0,0;"/><path d="M164.44,333.076c-5.577,-8.442 -7.559,-31.325 12.045,-37.39c19.603,-6.064 37.432,-4.15 44.237,1.946c6.805,6.096 10.907,26.094 5.325,33.11c-5.582,7.016 -50.404,19.293 -61.607,2.334Z" style="fill:#ebebeb;stroke:#321346;stroke-width:4px;stroke-dasharray:48,8,0,0;"/><path d="M302.645,200.257c3.492,-2.567 8.412,-1.814 10.978,1.678c2.566,3.493 1.814,8.412 -1.679,10.979c-3.493,2.566 -8.412,1.814 -10.978,-1.679c-2.566,-3.493 -1.814,-8.412 1.679,-10.978Z" style="fill:#321346;"/><circle cx="137.088" cy="152.285" r="6.67" style="fill:#321346;"/><circle cx="191.229" cy="316.279" r="6.67" style="fill:#321346;"/></svg>