<?xml version="1.0" encoding="UTF-8" standalone="no"?><!DOCTYPE svg PUBLIC "-//W3C//DTD SVG 1.1//EN" "http://www.w3.org/Graphics/SVG/1.1/DTD/svg11.dtd"><svg width="100%" height="100%" viewBox="0 0 451 450" version="1.1" xmlns="http://www.w3.org/2000/svg" xmlns:xlink="http://www.w3.org/1999/xlink" xml:space="preserve" xmlns:serif="http://www.serif.com/" style="fill-rule:evenodd;clip-rule:evenodd;stroke-linecap:round;stroke-linejoin:round;stroke-miterlimit:1.5;"><rect id="photo" x="0.859" y="0" width="450" height="450" style="fill:none;"/><path d="M150.084,174.541l0,-13.828c0,-3.051 -2.477,-5.529 -5.529,-5.529l-11.058,0c-3.052,0 -5.529,2.478 -5.529,5.529l-0.274,13.323" style="fill:#b09dbc;stroke:#321346;stroke-width:4px;"/><rect x="112.014" y="231.622" width="61.2" height="20.2" style="fill:#b09dbc;"/><rect x="112.014" y="231.622" width="61.2" height="20.2" style="fill:#b09dbc;"/><rect x="289.914" y="231.622" width="61.2" height="20.2" style="fill:#b09dbc;"/><path d="M351.957,192.486c0,-9.402 -7.634,-17.035 -17.035,-17.035l-206.374,0c-9.402,0 -17.035,7.633 -17.035,17.035l0,108.93c0,9.402 7.633,17.035 17.035,17.035l206.374,0c9.401,0 17.035,-7.633 17.035,-17.035l0,-108.93Z" style="fill:none;stroke:#321346;stroke-width:4px;"/><path d="M297.258,175.289l-7.544,-12.917c0,-6.137 -4.982,-11.119 -11.119,-11.119l-93.244,0c-6.137,0 -11.119,4.982 -11.119,11.119l-8.834,12.471" style="fill:none;stroke:#321346;stroke-width:4px;"/><circle cx="231.181" cy="246.405" r="57.5" style="fill:none;stroke:#321346;stroke-width:4px;"/><circle cx="280.923" cy="168.893" r="3.25" style="fill:#321346;"/><circle cx="249.244" cy="257.525" r="3.25" style="fill:#321346;"/><circle cx="231.181" cy="246.405" r="38.25" style="fill:none;stroke:#321346;stroke-width:4px;stroke-dasharray:48,8,0,0;"/><path d="M231.181,267.405c-11.591,0 -21,-9.41 -21,-21c0,-11.59 9.409,-21 21,-21c11.59,0 21,9.41 21,21" style="fill:none;stroke:#321346;stroke-width:4px;stroke-dasharray:48,8,0,0;"/><path d="M112.153,232.403c0.451,-0.063 61.632,0.14 61.771,0" style="fill:none;stroke:#321346;stroke-width:4px;stroke-dasharray:48,8,0,0;"/><path d="M112.153,251.568c0.451,-0.064 61.632,0.139 61.771,0" style="fill:none;stroke:#321346;stroke-width:4px;stroke-dasharray:48,8,0,0;"/><path d="M351.414,251.568c-0.451,-0.064 -61.632,0.139 -61.771,0" style="fill:none;stroke:#321346;stroke-width:4px;stroke-dasharray:48,8,0,0;"/><path d="M351.414,232.935c-0.451,-0.064 -61.632,0.139 -61.771,0" style="fill:none;stroke:#321346;stroke-width:4px;stroke-dasharray:48,8,0,0;"/><path d="M175.475,161.79c0.831,-0.117 113.513,0.256 113.769,0" style="fill:none;stroke:#321346;stroke-width:4px;stroke-dasharray:48,8,0,0;"/></svg>