<?xml version="1.0" encoding="UTF-8" standalone="no"?><!DOCTYPE svg PUBLIC "-//W3C//DTD SVG 1.1//EN" "http://www.w3.org/Graphics/SVG/1.1/DTD/svg11.dtd"><svg width="100%" height="100%" viewBox="0 0 451 450" version="1.1" xmlns="http://www.w3.org/2000/svg" xmlns:xlink="http://www.w3.org/1999/xlink" xml:space="preserve" xmlns:serif="http://www.serif.com/" style="fill-rule:evenodd;clip-rule:evenodd;stroke-linecap:round;stroke-linejoin:round;stroke-miterlimit:1.5;"><rect id="sanguin" x="0.127" y="0" width="450" height="450" style="fill:none;"/><path d="M89.868,215.926c0,0 -17.08,-4.099 -14.347,-20.496c2.733,-16.397 32.111,-21.863 32.794,-6.149c0.683,15.714 -4.099,29.378 -18.447,26.645" style="fill:#ebebeb;stroke:#321346;stroke-width:4px;stroke-dasharray:48,8,0,0;"/><path d="M131.316,261.132c0,0 79.214,30.691 102.937,55.568c38.366,40.23 51.013,58.3 51.013,58.3c0,0 102.368,-67.366 94.17,-91.962c-8.199,-24.596 -32.226,-110.268 -172.511,-174.945c-42.815,75.609 -75.609,153.039 -75.609,153.039Z" style="fill:#ebebeb;stroke:#321346;stroke-width:4px;stroke-dasharray:48,8,0,0;"/><path d="M203.926,107.205c15.805,8.162 11.028,48.883 -10.659,90.878c-21.688,41.995 -52.127,69.463 -67.932,61.301c-15.804,-8.162 -11.028,-48.883 10.66,-90.878c21.688,-41.995 52.127,-69.463 67.931,-61.301Z" style="fill:#ebebeb;stroke:#321346;stroke-width:4px;stroke-dasharray:48,8,0,0;"/><path d="M193.47,127.451c11.6,5.99 8.094,35.876 -7.823,66.697c-15.917,30.821 -38.257,50.981 -49.856,44.99c-11.599,-5.99 -8.094,-35.876 7.823,-66.697c15.917,-30.821 38.257,-50.98 49.856,-44.99Z" style="fill:#fff;stroke:#321346;stroke-width:4px;stroke-dasharray:48,8,0,0;"/><path d="M152.724,148.289c0,0 -31.428,4.782 -29.378,-21.18c2.049,-25.962 28.694,-15.03 32.11,-7.515c3.416,7.515 17.081,15.03 -2.732,28.695Z" style="fill:#ebebeb;stroke:#321346;stroke-width:4px;stroke-dasharray:48,8,0,0;"/><path d="M81.67,170.834c0,0 -15.954,-6.278 -4.099,-28.011c12.297,-22.546 40.992,-22.546 38.942,-7.515c-2.049,15.03 -4.782,51.923 -34.843,35.526Z" style="fill:#ebebeb;stroke:#321346;stroke-width:4px;stroke-dasharray:48,8,0,0;"/></svg>