<?xml version="1.0" encoding="UTF-8" standalone="no"?><!DOCTYPE svg PUBLIC "-//W3C//DTD SVG 1.1//EN" "http://www.w3.org/Graphics/SVG/1.1/DTD/svg11.dtd"><svg width="100%" height="100%" viewBox="0 0 302 540" version="1.1" xmlns="http://www.w3.org/2000/svg" xmlns:xlink="http://www.w3.org/1999/xlink" xml:space="preserve" xmlns:serif="http://www.serif.com/" style="fill-rule:evenodd;clip-rule:evenodd;stroke-linecap:round;stroke-linejoin:round;stroke-miterlimit:1.5;"><path d="M89.809,262.638c0,-0 114.786,73.136 200.066,226.578" style="fill:none;stroke:#321346;stroke-width:12px;"/><path d="M98.169,268.105c-0,-0 -55.531,-3.033 -74.426,-13.33c-11.588,-6.315 -15.868,-20.849 -9.553,-32.436c6.314,-11.588 20.849,-15.868 32.436,-9.554c18.895,10.298 51.543,55.32 51.543,55.32Z" style="fill:#b09dbc;stroke:#321346;stroke-width:12px;stroke-dasharray:144,24,0,0;"/><path d="M135.109,298.062c-0,0 -44.369,33.53 -65.447,37.862c-12.927,2.657 -25.578,-5.68 -28.235,-18.606c-2.657,-12.926 5.681,-25.578 18.607,-28.235c21.078,-4.332 75.075,8.979 75.075,8.979Z" style="fill:#b09dbc;stroke:#321346;stroke-width:12px;stroke-dasharray:144,24,0,0;"/><path d="M136.224,293.758c0,0 15.953,-53.276 12.664,-74.542c-2.017,-13.041 -14.243,-21.991 -27.284,-19.974c-13.042,2.018 -21.991,14.243 -19.974,27.284c3.289,21.266 34.594,67.232 34.594,67.232Z" style="fill:#b09dbc;stroke:#321346;stroke-width:12px;"/><path d="M190.735,356.875c-0,0 -48.709,24.282 -69.766,24.662c-12.912,0.233 -23.584,-10.062 -23.817,-22.974c-0.233,-12.913 10.061,-23.585 22.974,-23.818c21.056,-0.38 70.609,22.13 70.609,22.13Z" style="fill:#b09dbc;stroke:#321346;stroke-width:12px;"/><path d="M200.278,350.152c0,0 18.328,-51.247 16.206,-72.199c-1.302,-12.849 -12.79,-22.224 -25.639,-20.922c-12.849,1.301 -22.224,12.79 -20.922,25.638c2.122,20.953 30.355,67.483 30.355,67.483Z" style="fill:#b09dbc;stroke:#321346;stroke-width:12px;stroke-dasharray:144,24,0,0;"/><path d="M247.357,427.036c0,0 -50.492,13.173 -70.323,9.375c-12.161,-2.329 -20.144,-14.093 -17.815,-26.254c2.329,-12.161 14.094,-20.144 26.255,-17.815c19.831,3.798 61.883,34.694 61.883,34.694Z" style="fill:#b09dbc;stroke:#321346;stroke-width:12px;stroke-dasharray:144,24,0,0;"/><path d="M247.467,415.959c-0,-0 25.79,-45.364 27.254,-65.502c0.897,-12.35 -8.4,-23.105 -20.75,-24.002c-12.35,-0.898 -23.105,8.4 -24.002,20.75c-1.464,20.138 17.498,68.754 17.498,68.754Z" style="fill:#b09dbc;stroke:#321346;stroke-width:12px;"/></svg>