<?xml version="1.0" encoding="UTF-8" standalone="no"?><!DOCTYPE svg PUBLIC "-//W3C//DTD SVG 1.1//EN" "http://www.w3.org/Graphics/SVG/1.1/DTD/svg11.dtd"><svg width="100%" height="100%" viewBox="0 0 100 115" version="1.1" xmlns="http://www.w3.org/2000/svg" xmlns:xlink="http://www.w3.org/1999/xlink" xml:space="preserve" xmlns:serif="http://www.serif.com/" style="fill-rule:evenodd;clip-rule:evenodd;stroke-linecap:round;stroke-linejoin:round;stroke-miterlimit:10;"><rect id="à-propos" serif:id="à propos" x="-318.3" y="-471" width="1280" height="804" style="fill:none;"/><g><rect x="-32.433" y="-1.88" width="708.267" height="116.7" style="fill:none;"/><clipPath id="_clip1"><rect x="-32.433" y="-1.88" width="708.267" height="116.7"/></clipPath><g clip-path="url(#_clip1)"><g><path d="M43.957,1.717c-10.323,0.714 -24.921,10.949 -25.237,30.241c-0.279,17.118 -1.509,18.092 -7.559,20.683c-9.625,4.123 1.255,7.962 -4.398,14.613c-4.724,5.558 15.01,13.354 19.158,4.905c3.205,-6.529 6.338,1.637 11.011,1.708c8.571,0.129 15.876,-7.705 27.345,-0.234c11.468,7.472 26.847,4.871 19.972,-4.498c-2.906,-3.959 10.488,-1.935 9.713,-12.062c-0.959,-12.535 -13.405,-2.62 -12.588,-17.174c0.817,-14.554 -3.94,-40.495 -37.417,-38.182Z" style="fill:#615050;stroke:#000;stroke-width:1.2px;"/><path d="M27.99,40.31c0,0 -5.462,-1.003 -4.464,5.66c0.999,6.663 6.067,3.458 6.067,3.458" style="fill:#fff0e5;stroke:#000;stroke-width:1.2px;"/><path d="M73.111,40.075c0,0 5.462,-1.003 4.463,5.66c-0.998,6.663 -6.067,3.459 -6.067,3.459" style="fill:#fff0e5;stroke:#000;stroke-width:1.2px;"/><path d="M47.511,65.811c0,0 0.285,10.291 -0.439,10.87c-7.273,2.022 -12.876,5.615 -12.876,5.615c0,0 10.606,12.578 20.184,9.913c9.577,-2.666 16.416,-10.017 16.416,-10.017c0,0 -8.017,-3.35 -13.315,-5.151c-3.42,-4.383 -0.817,-13.042 -0.817,-13.042l-9.153,1.812Z" style="fill:#fff0e5;"/><path d="M74.629,31.025c0,0 -12.172,-12.769 -26.735,-16.832c-16.199,-4.519 -22.475,17.901 -22.475,17.901c0,0 -0.237,35.117 26.604,34.81c24.474,-0.28 22.606,-35.879 22.606,-35.879Z" style="fill:#fff0e5;"/><path d="M25.654,31.39c0,0 -0.738,35.354 26.369,35.514c23.509,0.138 22.606,-32.359 22.606,-32.359" style="fill:none;stroke:#000;stroke-width:1.2px;"/><path d="M45.411,39.232c0,0 -4.887,-3.609 -11.65,0.808c0.091,3.19 0.968,4.941 0.968,4.941c0,0 6.718,3.19 9.214,0.539c2.497,-2.65 1.468,-6.288 1.468,-6.288Z" style="fill:#fff;"/><path d="M46.77,32.544c0,0 -7.721,-2.911 -16.163,2.854" style="fill:none;stroke:#000;stroke-width:1.2px;"/><circle cx="40.625" cy="42.157" r="2.911" style="stroke:#000;stroke-width:0.9px;"/><path d="M45.136,39.384c0,0 -4.452,-3.957 -11.451,0.709" style="fill:none;stroke:#000;stroke-width:1.2px;"/><path d="M47.08,67.003c0,0 2.07,9.273 -2.242,10.595c-4.312,1.323 -19.471,4.219 -22.724,23.31c-3.253,19.091 -4.287,59.528 -4.287,59.528" style="fill:none;stroke:#000;stroke-width:1.2px;"/><path d="M55.936,67.003c0,0 -1.601,9.038 2.711,10.361c4.312,1.322 21.348,4.688 24.601,23.779c3.253,19.09 6.869,58.12 6.869,58.12" style="fill:none;stroke:#000;stroke-width:1.2px;"/><path d="M34.372,45.178c0,0 6.688,2.915 9.891,-0.155" style="fill:none;stroke:#000;stroke-width:1.2px;"/><path d="M55.9,39.232c0,0 4.887,-3.609 11.65,0.808c-0.091,3.19 -0.969,4.941 -0.969,4.941c0,0 -6.717,3.19 -9.214,0.539c-2.496,-2.65 -1.467,-6.288 -1.467,-6.288Z" style="fill:#fff;"/><path d="M54.776,32.518c0,0 7.72,-2.911 16.163,2.854" style="fill:none;stroke:#000;stroke-width:1.2px;"/><circle cx="62.666" cy="42.157" r="2.911" style="stroke:#000;stroke-width:0.9px;"/><path d="M56.174,39.384c0,0 4.453,-3.957 11.452,0.709" style="fill:none;stroke:#000;stroke-width:1.2px;"/><path d="M66.938,45.178c0,0 -6.688,2.915 -9.89,-0.155" style="fill:none;stroke:#000;stroke-width:1.2px;"/><path d="M48.295,12.997c0,0 -0.408,22.425 25.407,28.628l3.09,-4.827l0.875,-15.915c0,0 -23.093,-9.488 -29.372,-7.886Z" style="fill:#615050;"/><path d="M48.06,13.467c0,0 0.296,22.189 25.877,28.393" style="fill:none;stroke:#000;stroke-width:1.2px;"/><path d="M33.924,80.562c0,0 14.086,11.753 38.188,0.269c5.946,5.885 8.216,8.55 11.287,15.093c3.071,6.543 7.459,64.609 7.459,64.609l-73.653,0.42c0,0 1.816,-66.661 8.624,-73.728c6.809,-7.068 8.095,-6.663 8.095,-6.663Z" style="fill:#321346;stroke:#000;stroke-width:1.2px;"/><path d="M32.184,110.837c0,0 -6.99,7.921 -0.378,15.048c6.611,7.128 -1.211,34.948 -1.211,34.948" style="fill:none;stroke:#000;stroke-width:1.2px;"/><path d="M75.176,110.208c0,0 6.99,7.921 0.378,15.048c-6.612,7.128 1.211,34.948 1.211,34.948" style="fill:none;stroke:#000;stroke-width:1.2px;"/><path d="M45.038,58.045c0,0 3.714,1.981 11.883,0" style="fill:none;stroke:#000;stroke-width:1.2px;stroke-miterlimit:1.5;"/></g></g></g></svg>