<?xml version="1.0" encoding="UTF-8" standalone="no"?><!DOCTYPE svg PUBLIC "-//W3C//DTD SVG 1.1//EN" "http://www.w3.org/Graphics/SVG/1.1/DTD/svg11.dtd"><svg width="100%" height="100%" viewBox="0 0 414 22" version="1.1" xmlns="http://www.w3.org/2000/svg" xmlns:xlink="http://www.w3.org/1999/xlink" xml:space="preserve" xmlns:serif="http://www.serif.com/" style="fill-rule:evenodd;clip-rule:evenodd;stroke-linecap:round;stroke-linejoin:round;stroke-miterlimit:1.5;"><rect id="à-propos" serif:id="à propos" x="-431.3" y="-659" width="1280" height="804" style="fill:none;"/><g><g><g><path d="M188.055,4.838c1.038,-0.858 2.368,-1.373 3.818,-1.373c3.312,0 6,2.688 6,6c0,3.311 -2.688,6 -6,6c-1.45,0 -2.78,-0.516 -3.818,-1.373c1.332,-1.101 2.182,-2.766 2.182,-4.627c0,-1.862 -0.85,-3.526 -2.182,-4.627Z" style="fill:none;stroke:#321346;stroke-width:0.5px;"/><path d="M231.24,4.838c-1.038,-0.858 -2.368,-1.373 -3.818,-1.373c-3.312,0 -6,2.688 -6,6c0,3.311 2.688,6 6,6c1.45,0 2.78,-0.516 3.818,-1.373c-1.332,-1.101 -2.181,-2.766 -2.181,-4.627c0,-1.862 0.849,-3.526 2.181,-4.627Z" style="fill:none;stroke:#321346;stroke-width:0.5px;"/><g><circle cx="209.673" cy="9.7" r="6.127" style="fill:none;stroke:#321346;stroke-width:0.18px;"/><circle cx="209.673" cy="9.7" r="4.306" style="fill:#321346;stroke:#321346;stroke-width:0.4px;"/><circle cx="209.673" cy="9.7" r="2.456" style="fill:#fff;stroke:#321346;stroke-width:1px;"/><circle cx="209.673" cy="9.7" r="8.027" style="fill:none;stroke:#321346;stroke-width:0.5px;"/></g><path d="M178.594,5.532c0.585,-0.265 1.235,-0.413 1.919,-0.413c2.571,0 4.659,2.088 4.659,4.659c0,2.571 -2.088,4.659 -4.659,4.659c-0.684,0 -1.334,-0.148 -1.919,-0.413c1.615,-0.732 2.74,-2.359 2.74,-4.246c0,-1.887 -1.125,-3.514 -2.74,-4.246Z" style="fill:none;stroke:#321346;stroke-width:0.5px;"/><path d="M240.752,5.532c-0.585,-0.265 -1.235,-0.413 -1.919,-0.413c-2.571,0 -4.659,2.088 -4.659,4.659c0,2.571 2.088,4.659 4.659,4.659c0.684,0 1.334,-0.148 1.919,-0.413c-1.615,-0.732 -2.74,-2.359 -2.74,-4.246c0,-1.887 1.125,-3.514 2.74,-4.246Z" style="fill:none;stroke:#321346;stroke-width:0.5px;"/><path d="M198.039,9.527l3.505,0" style="fill:none;stroke:#321346;stroke-width:0.5px;"/><path d="M217.816,9.527l3.505,0" style="fill:none;stroke:#321346;stroke-width:0.5px;"/><path d="M185.271,9.527l4.955,0" style="fill:none;stroke:#321346;stroke-width:0.5px;"/><path d="M229.134,9.527l4.954,0" style="fill:none;stroke:#321346;stroke-width:0.5px;"/></g></g><path d="M171.033,9.32l-159.666,0" style="fill:none;stroke:#321346;stroke-width:0.18px;"/><path d="M406.033,9.32l-159.666,0" style="fill:none;stroke:#321346;stroke-width:0.18px;"/></g></svg>