<?xml version="1.0" encoding="UTF-8" standalone="no"?><!DOCTYPE svg PUBLIC "-//W3C//DTD SVG 1.1//EN" "http://www.w3.org/Graphics/SVG/1.1/DTD/svg11.dtd"><svg width="100%" height="100%" viewBox="0 0 440 235" version="1.1" xmlns="http://www.w3.org/2000/svg" xmlns:xlink="http://www.w3.org/1999/xlink" xml:space="preserve" xmlns:serif="http://www.serif.com/" style="fill-rule:evenodd;clip-rule:evenodd;stroke-linejoin:round;stroke-miterlimit:2;"><rect id="Plan-de-travail4" serif:id="Plan de travail4" x="-176" y="-15" width="784" height="886" style="fill:none;"/><g><path d="M98.467,67.497l5.371,14.514l14.514,5.371l-14.514,5.371l-5.371,14.514l-5.37,-14.514l-14.514,-5.371l14.514,-5.371l5.37,-14.514Z" style="fill:#4a3359;"/><path d="M53.529,76.375l3.252,8.789l8.788,3.252l-8.788,3.252l-3.252,8.788l-3.252,-8.788l-8.789,-3.252l8.789,-3.252l3.252,-8.789Z" style="fill:#4a3359;"/><path d="M20.326,80.754l2.07,5.592l5.592,2.07l-5.592,2.069l-2.07,5.593l-2.069,-5.593l-5.593,-2.069l5.593,-2.07l2.069,-5.592Z" style="fill:#4a3359;"/><path d="M341.925,66.997l-5.371,14.514l-14.514,5.371l14.514,5.371l5.371,14.514l5.371,-14.514l14.514,-5.371l-14.514,-5.371l-5.371,-14.514Z" style="fill:#4a3359;"/><path d="M386.864,75.875l-3.252,8.789l-8.789,3.252l8.789,3.252l3.252,8.788l3.252,-8.788l8.788,-3.252l-8.788,-3.252l-3.252,-8.789Z" style="fill:#4a3359;"/><path d="M420.066,80.254l-2.069,5.592l-5.593,2.07l5.593,2.069l2.069,5.593l2.07,-5.593l5.592,-2.069l-5.592,-2.07l-2.07,-5.592Z" style="fill:#4a3359;"/><path d="M177.661,24.509c13.038,-12.748 30.874,-20.609 50.531,-20.609c39.905,-0 72.302,32.397 72.302,72.302c0,16.984 -5.868,32.607 -15.687,44.954l17.191,6.361l-19.89,7.36l-7.36,19.89l-6.741,-18.217c6.379,-4.219 12.051,-9.423 16.8,-15.394l-2.699,-0.999l-7.36,-19.89l-7.36,19.89l-19.89,7.36l19.89,7.36l0.619,1.673c-4.714,3.117 -9.813,5.697 -15.208,7.653l2.322,6.274l12.043,4.457l-12.043,4.456l-4.457,12.044l-4.456,-12.044l-12.044,-4.456l12.044,-4.457l1.743,-4.71c1.64,-0.465 3.256,-0.987 4.848,-1.564l-2.135,-5.769l-2.713,7.333c-6.285,1.784 -12.911,2.738 -19.759,2.738c-39.905,-0 -72.303,-32.398 -72.303,-72.303c0,-3.068 0.192,-6.093 0.564,-9.058l11.378,-4.21l-9.941,-3.679c1.7,-7.068 4.44,-13.733 8.047,-19.822l-1.199,-3.24l-16.24,-6.009l16.24,-6.01l6.01,-16.24l6.009,16.24l0.904,0.335c-4.527,4.426 -8.476,9.442 -11.724,14.924l4.811,13.001l6.009,-16.241l16.241,-6.009l-15.337,-5.675Zm-21.208,42.635l-0.666,0.246l-4.456,12.044l-4.457,-12.044l-12.043,-4.456l12.043,-4.457l4.457,-12.043l4.456,12.043l2.103,0.778c-0.62,2.579 -1.102,5.212 -1.437,7.889Z" style="fill:#4a3359;"/></g><path d="M211.367,197.896l-1.494,4.037l-4.037,1.494l4.037,1.494l1.494,4.037l1.494,-4.037l4.037,-1.494l-4.037,-1.494l-1.494,-4.037Z" style="fill:#4a3359;"/><path d="M357.29,197.283l-1.494,4.037l-4.037,1.494l4.037,1.494l1.494,4.037l1.494,-4.037l4.037,-1.494l-4.037,-1.494l-1.494,-4.037Z" style="fill:#4a3359;"/><g><path d="M104.374,227.949c-1.817,0 -3.692,-0.136 -5.623,-0.408c-1.567,-0.091 -2.669,-0.443 -3.305,-1.057c-0.477,-0.454 -0.716,-1 -0.716,-1.636c-0.045,-6.588 -0.284,-15.335 -0.716,-26.24c-0.295,-8.633 -0.443,-13.688 -0.443,-15.165c0,-1.499 0.727,-2.533 2.181,-3.101c1.772,-1.022 4.692,-1.534 8.758,-1.534c0.16,0 0.904,0.006 2.233,0.017c1.329,0.012 3.822,0.324 7.48,0.938c0.386,0.068 0.676,0.232 0.869,0.494c0.193,0.261 0.29,0.528 0.29,0.801c-0,0.795 -0.228,1.351 -0.682,1.669c-0.25,0.159 -0.523,0.239 -0.818,0.239l-0.204,-0c-3.704,-0.613 -6.714,-0.92 -9.031,-0.92l-0.239,-0l0,0.511c-0.159,2.022 -0.238,8.622 -0.238,19.8l0.034,6.168l8.179,-0c0.363,-0 0.681,0.13 0.954,0.392c0.272,0.261 0.409,0.585 0.409,0.971l-0,0.545c-0,0.364 -0.137,0.682 -0.409,0.954c-0.273,0.273 -0.591,0.409 -0.954,0.409l-8.179,0c-0,7.361 -0.102,11.655 -0.307,12.882c3.84,-0 7.441,-0.375 10.803,-1.125l0.307,-0.034c0.25,0 0.505,0.085 0.766,0.256c0.262,0.17 0.483,0.596 0.665,1.278l0.034,0.375c0,0.681 -0.352,1.124 -1.056,1.329c-0.705,0.136 -1.613,0.295 -2.727,0.477c-2.681,0.477 -5.452,0.715 -8.315,0.715Z" style="fill:#4a3359;fill-rule:nonzero;"/><path d="M146.12,228.699l-2.385,0c-0.523,-0.023 -1.051,-0.182 -1.585,-0.477c-0.534,-0.295 -1.017,-0.659 -1.448,-1.09c-0.432,-0.432 -0.75,-0.864 -0.954,-1.295l-12.2,-31.012l-0.035,1.295c-0.09,4.794 -0.136,8.94 -0.136,12.439c0,6.657 0.182,12.2 0.545,16.63l0,0.068c0,0.523 -0.386,1 -1.158,1.432c-0.455,0.272 -0.875,0.409 -1.261,0.409c-0.341,-0 -0.67,-0.114 -0.988,-0.341c-0.682,-0.477 -1.205,-4.022 -1.568,-10.633c-0.295,-5.384 -0.443,-11.541 -0.443,-18.47c-0,-5.476 0.079,-10.587 0.238,-15.336c0.023,-0.999 0.375,-1.862 1.057,-2.589c0.636,-0.591 1.34,-0.887 2.113,-0.887l2.556,0c0.204,0 0.551,0.052 1.039,0.154c0.488,0.102 1.005,0.267 1.551,0.494c1.317,0.568 2.135,1.261 2.453,2.079l11.894,32.647c0.318,-5.066 0.477,-10.542 0.477,-16.426c-0,-5.021 -0.148,-10.178 -0.443,-15.472c-0,-0.59 0.397,-1.09 1.192,-1.499c0.432,-0.227 0.841,-0.341 1.227,-0.341c0.364,0 0.705,0.12 1.023,0.358c0.318,0.239 0.522,0.596 0.613,1.074c0.636,5.134 0.954,11.279 0.954,18.436c0,4.566 -0.125,9.167 -0.375,13.802c-0.295,5.316 -0.556,9.008 -0.783,11.075c-0.023,1.023 -0.387,1.886 -1.091,2.59c-0.613,0.591 -1.306,0.886 -2.079,0.886Z" style="fill:#4a3359;fill-rule:nonzero;"/><path d="M164.966,228.495c-1.432,-0 -2.693,-0.137 -3.783,-0.409c-2.476,-0.591 -3.715,-1.681 -3.715,-3.272c0,-5.452 -0.318,-14.029 -0.954,-25.729c-0.363,-6.657 -0.568,-11.598 -0.613,-14.824c-0,-1.477 0.534,-2.76 1.601,-3.851c0.523,-0.522 1.136,-0.926 1.841,-1.21c0.704,-0.284 1.579,-0.426 2.624,-0.426c0.84,0 1.579,0.137 2.215,0.409c1.522,0.636 2.385,1.727 2.59,3.272c1.772,-2.204 3.953,-3.351 6.543,-3.442c2.294,-0 4.566,1.193 6.816,3.578c1.522,1.681 2.669,3.771 3.441,6.271c0.886,2.908 1.33,6.122 1.33,9.644c-0,5.543 -0.955,10.871 -2.863,15.983c-3.499,9.337 -9.19,14.006 -17.073,14.006Zm1.908,-4.839c0.568,-0 1.272,-0.137 2.113,-0.409c1.84,-0.614 3.419,-1.812 4.737,-3.596c1.317,-1.783 2.465,-3.902 3.442,-6.355c2.158,-5.362 3.237,-10.792 3.237,-16.29c0,-5.611 -1.352,-9.678 -4.055,-12.2c-1.318,-1.181 -2.431,-1.772 -3.34,-1.772c-1.567,0 -2.897,0.659 -3.987,1.977c-1.59,1.908 -2.408,4.43 -2.454,7.565l0.034,19.22c0,5.112 -0.056,9.031 -0.17,11.757c0,0.069 0.148,0.103 0.443,0.103Z" style="fill:#4a3359;fill-rule:nonzero;"/><path d="M242.156,228.563c-3.158,-0 -5.316,-0.295 -6.475,-0.886c-1.295,-0.682 -1.954,-1.602 -1.976,-2.76c-0.023,-5.726 -0.353,-14.575 -0.989,-26.548c-0.431,-7.792 -0.647,-12.893 -0.647,-15.301c-0,-0.75 0.147,-1.465 0.443,-2.147c0.591,-1.408 1.613,-2.419 3.067,-3.033c0.75,-0.295 1.67,-0.443 2.76,-0.443c1.113,0 2.056,0.216 2.829,0.648c1.09,0.659 1.772,1.59 2.044,2.794c1.727,-1.408 3.601,-2.113 5.623,-2.113c2.749,0 4.953,1.261 6.612,3.783c1.158,1.818 1.738,3.987 1.738,6.509c-0,1.84 -0.307,3.658 -0.92,5.453c-0.909,2.567 -2.341,4.589 -4.294,6.066c1.704,0.658 3.271,1.681 4.702,3.067c0.818,0.795 1.523,1.794 2.113,2.998c0.909,1.932 1.363,4.056 1.363,6.373c0,0.682 -0.068,1.59 -0.204,2.726c-0.136,1.136 -0.568,2.465 -1.295,3.988c-1.318,2.885 -3.51,5.123 -6.577,6.713c-2.658,1.386 -5.964,2.09 -9.917,2.113Zm1.091,-29.342c0.795,0 1.76,-0.147 2.896,-0.443c1.909,-0.545 3.397,-1.476 4.464,-2.794c0.568,-0.75 1.046,-1.624 1.432,-2.624c0.613,-1.545 0.92,-3.09 0.92,-4.635c-0,-1.704 -0.375,-3.146 -1.125,-4.328c-0.977,-1.499 -2.056,-2.249 -3.237,-2.249c-1.113,0 -2.204,0.454 -3.272,1.363c-1.476,1.25 -2.226,2.965 -2.249,5.146l-0.034,6.475l0.034,4.089l0.171,0Zm0.511,25.287c0.204,-0 0.636,-0.057 1.295,-0.171c1.635,-0.272 3.169,-0.818 4.6,-1.636c1.818,-1.067 3.136,-2.533 3.953,-4.396c0.977,-2.317 1.466,-4.6 1.466,-6.849c-0,-0.773 -0.091,-1.67 -0.273,-2.693c-0.341,-1.749 -1.67,-3.305 -3.987,-4.668c-1.272,-0.75 -2.635,-1.125 -4.089,-1.125l-0.409,0.034c-0.477,0.068 -0.966,0.102 -1.466,0.102c-0.818,0.159 -1.408,0.307 -1.772,0.443l0,5.896c0,6.838 -0.068,11.836 -0.204,14.994c-0,0.046 0.17,0.069 0.511,0.069l0.375,-0Z" style="fill:#4a3359;fill-rule:nonzero;"/><path d="M295.318,229.449l-1.226,-0c-1.136,-0 -2.102,-0.307 -2.897,-0.92c-0.795,-0.614 -1.238,-1.386 -1.329,-2.318l-0.341,-6.406c-0.795,1.908 -1.863,3.51 -3.203,4.805c-2.045,1.931 -4.601,2.896 -7.668,2.896c-0.931,0 -1.908,-0.102 -2.931,-0.306c-5.725,-1 -9.269,-7.089 -10.632,-18.266c-0.341,-3.158 -0.511,-7.441 -0.511,-12.848c-0,-1.613 0.022,-3.067 0.068,-4.362c0.091,-4.407 0.193,-7.315 0.307,-8.724c0.113,-1.409 0.272,-2.306 0.477,-2.692c0.34,-0.659 1.613,-1.125 3.816,-1.397c0.637,-0 1.477,0.056 2.522,0.17c0.773,0.091 1.38,0.415 1.823,0.971c0.443,0.557 0.665,1.21 0.665,1.96c-0.523,8.269 -0.784,14.597 -0.784,18.981c0,3.386 0.148,6.657 0.443,9.815c0.75,7.952 2.454,12.291 5.112,13.018c0.522,0.136 1.011,0.204 1.465,0.204l0.273,0c2.726,-0.59 4.85,-2.607 6.373,-6.048c1.522,-3.442 2.374,-7.696 2.555,-12.763c-0.045,-5.839 -0.124,-10.848 -0.238,-15.028c-0.068,-2.727 -0.102,-4.862 -0.102,-6.407c-0.023,-0.386 -0.051,-0.739 -0.086,-1.057c-0.034,-0.318 -0.051,-0.602 -0.051,-0.852c0,-0.159 0.012,-0.38 0.034,-0.664c0.023,-0.284 0.182,-0.596 0.478,-0.937c1.045,-1 2.487,-1.5 4.327,-1.5c1.5,0 2.642,0.432 3.425,1.295c0.784,0.864 1.176,1.863 1.176,2.999c-0.159,5.044 -0.238,9.792 -0.238,14.245l0.034,12.541c-0,7.293 -0.069,12.563 -0.205,15.812c-0.091,2.204 -1.068,3.465 -2.931,3.783Z" style="fill:#4a3359;fill-rule:nonzero;"/><path d="M313.244,228.256c-3.113,0 -5.532,-1.113 -7.259,-3.339c-1.931,-2.545 -2.897,-6.101 -2.897,-10.667c0,-3.431 0.33,-5.373 0.989,-5.827c0.272,-0.228 0.59,-0.341 0.954,-0.341c0.545,-0 0.988,0.227 1.329,0.681c0.204,0.296 0.307,0.614 0.307,0.955l-0,0.204c-0.205,1.522 -0.307,2.965 -0.307,4.328c-0,1.181 0.119,2.601 0.358,4.26c0.238,1.658 0.863,3.146 1.874,4.464c1.011,1.318 2.38,1.977 4.106,1.977c1,-0 1.886,-0.375 2.659,-1.125c2.976,-2.704 4.464,-10.246 4.464,-22.628c-0,-4.885 -0.296,-10.848 -0.886,-17.891l-0.068,-0.92l-9.474,-0c-0.455,-0 -0.841,-0.159 -1.159,-0.477c-0.318,-0.319 -0.477,-0.693 -0.477,-1.125c0,-0.454 0.159,-0.841 0.477,-1.159c0.318,-0.318 0.704,-0.477 1.159,-0.477l11.995,0l3.749,0.239c0.523,-0 1.284,0.17 2.283,0.511c1.477,0.522 2.261,1.306 2.352,2.351c0.159,2.863 0.238,5.464 0.238,7.804l0,2.42c0,1.681 -0.011,3.442 -0.034,5.282c-0.25,16.585 -3.885,26.343 -10.905,29.273c-1.886,0.818 -3.828,1.227 -5.827,1.227Z" style="fill:#4a3359;fill-rule:nonzero;"/></g><path d="M209.28,178.851c-11.536,0.988 -20.901,11.523 -20.901,24.27c-0,12.746 9.365,23.281 20.901,24.27c-4.099,-5.567 -7.426,-14.526 -7.426,-24.27c-0,-9.745 3.327,-18.704 7.426,-24.27Z" style="fill:#4a3359;"/><path d="M354.304,178.927c-11.535,0.989 -20.901,11.523 -20.901,24.27c0,12.747 9.366,23.282 20.901,24.27c-4.098,-5.567 -7.426,-14.525 -7.426,-24.27c-0,-9.744 3.328,-18.703 7.426,-24.27Z" style="fill:#4a3359;"/></svg>