<?xml version="1.0" encoding="UTF-8" standalone="no"?><!DOCTYPE svg PUBLIC "-//W3C//DTD SVG 1.1//EN" "http://www.w3.org/Graphics/SVG/1.1/DTD/svg11.dtd"><svg width="100%" height="100%" viewBox="0 0 168 60" version="1.1" xmlns="http://www.w3.org/2000/svg" xmlns:xlink="http://www.w3.org/1999/xlink" xml:space="preserve" xmlns:serif="http://www.serif.com/" style="fill-rule:evenodd;clip-rule:evenodd;stroke-linecap:round;stroke-linejoin:round;stroke-miterlimit:1.5;"><rect id="article-exemple" serif:id="article exemple" x="-556.3" y="-33" width="1280" height="1082" style="fill:none;"/><g><g><g><path d="M29.338,9.374c2.609,-2.157 5.955,-3.453 9.602,-3.453c8.327,0 15.088,6.761 15.088,15.088c0,8.327 -6.761,15.088 -15.088,15.088c-3.647,0 -6.993,-1.297 -9.602,-3.453c3.349,-2.768 5.485,-6.954 5.485,-11.635c0,-4.681 -2.136,-8.867 -5.485,-11.635Z" style="fill:none;stroke:#321346;stroke-width:1px;"/><path d="M137.935,9.374c-2.61,-2.157 -5.956,-3.453 -9.602,-3.453c-8.327,0 -15.088,6.761 -15.088,15.088c0,8.327 6.761,15.088 15.088,15.088c3.646,0 6.992,-1.297 9.602,-3.453c-3.35,-2.768 -5.486,-6.954 -5.486,-11.635c0,-4.681 2.136,-8.867 5.486,-11.635Z" style="fill:none;stroke:#321346;stroke-width:1px;"/><g><circle cx="83.7" cy="21.6" r="15.408" style="fill:none;stroke:#321346;stroke-width:0.5px;"/><circle cx="83.7" cy="21.6" r="10.829" style="fill:#321346;stroke:#321346;stroke-width:1px;"/><circle cx="83.7" cy="21.6" r="6.175" style="fill:#fff;stroke:#321346;stroke-width:1px;"/><circle cx="83.7" cy="21.6" r="20.184" style="fill:none;stroke:#321346;stroke-width:1px;"/></g><path d="M5.546,11.12c1.472,-0.667 3.106,-1.038 4.826,-1.038c6.465,0 11.715,5.249 11.715,11.715c0,6.465 -5.25,11.715 -11.715,11.715c-1.72,0 -3.354,-0.372 -4.826,-1.039c4.061,-1.84 6.889,-5.931 6.889,-10.676c0,-4.746 -2.828,-8.836 -6.889,-10.677Z" style="fill:none;stroke:#321346;stroke-width:1px;"/><path d="M161.854,11.12c-1.472,-0.667 -3.106,-1.038 -4.826,-1.038c-6.465,0 -11.715,5.249 -11.715,11.715c0,6.465 5.25,11.715 11.715,11.715c1.72,0 3.354,-0.372 4.826,-1.039c-4.061,-1.84 -6.889,-5.931 -6.889,-10.676c0,-4.746 2.828,-8.836 6.889,-10.677Z" style="fill:none;stroke:#321346;stroke-width:1px;"/><path d="M54.443,21.166l8.814,0" style="fill:none;stroke:#321346;stroke-width:1px;"/><path d="M104.177,21.166l8.814,0" style="fill:none;stroke:#321346;stroke-width:1px;"/><path d="M22.338,21.166l12.458,0" style="fill:none;stroke:#321346;stroke-width:1px;"/><path d="M132.638,21.166l12.459,0" style="fill:none;stroke:#321346;stroke-width:1px;"/></g></g><g><path d="M17.074,50.381c0,-1.84 0.28,-3.072 0.84,-3.696c0.464,-0.512 1.156,-0.768 2.076,-0.768c0.76,0 1.656,0.096 2.688,0.288l0,0.36c-0.128,-0.008 -0.244,-0.018 -0.348,-0.03c-0.104,-0.012 -0.226,-0.022 -0.366,-0.03c-0.14,-0.008 -0.292,-0.018 -0.456,-0.03c-0.164,-0.012 -0.33,-0.022 -0.498,-0.03c-0.28,-0.024 -0.668,-0.036 -1.164,-0.036c-0.496,0 -0.912,0.108 -1.248,0.324c-0.688,0.456 -1.032,1.68 -1.032,3.672c0,2.648 0.812,3.972 2.436,3.972c0.744,0 1.504,-0.028 2.28,-0.084l0.396,-0.036l0,0.348c-0.944,0.176 -1.84,0.264 -2.688,0.264c-1.944,0 -2.916,-1.496 -2.916,-4.488Z" style="fill:#321346;fill-rule:nonzero;"/><path d="M36.754,54.797l-0.492,0l0,-3.12l-2.868,-5.664l0.54,0l2.58,5.064l2.808,-5.064l0.552,0l-3.12,5.664l0,3.12Z" style="fill:#321346;fill-rule:nonzero;"/><path d="M49.942,50.381c0,-1.84 0.28,-3.072 0.84,-3.696c0.464,-0.512 1.156,-0.768 2.076,-0.768c0.76,0 1.656,0.096 2.688,0.288l0,0.36c-0.128,-0.008 -0.244,-0.018 -0.348,-0.03c-0.104,-0.012 -0.226,-0.022 -0.366,-0.03c-0.14,-0.008 -0.292,-0.018 -0.456,-0.03c-0.164,-0.012 -0.33,-0.022 -0.498,-0.03c-0.28,-0.024 -0.668,-0.036 -1.164,-0.036c-0.496,0 -0.912,0.108 -1.248,0.324c-0.688,0.456 -1.032,1.68 -1.032,3.672c0,2.648 0.812,3.972 2.436,3.972c0.744,0 1.504,-0.028 2.28,-0.084l0.396,-0.036l0,0.348c-0.944,0.176 -1.84,0.264 -2.688,0.264c-1.944,0 -2.916,-1.496 -2.916,-4.488Z" style="fill:#321346;fill-rule:nonzero;"/><path d="M66.766,53.285l0,-7.272l0.492,0l0,7.272c0,0.456 0.124,0.744 0.372,0.864c0.2,0.104 0.456,0.156 0.768,0.156l3.444,0l0,0.492l-3.444,0c-0.456,0 -0.824,-0.08 -1.104,-0.24c-0.352,-0.2 -0.528,-0.624 -0.528,-1.272Z" style="fill:#321346;fill-rule:nonzero;"/><rect x="83.062" y="46.013" width="0.492" height="8.784" style="fill:#321346;fill-rule:nonzero;"/><path d="M95.266,53.381c-0.136,-0.32 -0.232,-0.72 -0.288,-1.2c-0.056,-0.48 -0.084,-1.032 -0.084,-1.656c0,-0.624 0.026,-1.16 0.078,-1.608c0.052,-0.448 0.122,-0.83 0.21,-1.146c0.088,-0.316 0.208,-0.586 0.36,-0.81c0.152,-0.224 0.308,-0.4 0.468,-0.528c0.16,-0.128 0.364,-0.228 0.612,-0.3c0.416,-0.12 0.896,-0.18 1.44,-0.18c0.544,0 0.964,0.024 1.26,0.072c0.296,0.048 0.592,0.158 0.888,0.33c0.296,0.172 0.524,0.418 0.684,0.738c0.368,0.72 0.552,1.844 0.552,3.372c0,1.44 -0.176,2.512 -0.528,3.216c-0.16,0.32 -0.384,0.566 -0.672,0.738c-0.288,0.172 -0.588,0.286 -0.9,0.342c-0.312,0.056 -0.686,0.084 -1.122,0.084c-0.436,0 -0.786,-0.016 -1.05,-0.048c-0.264,-0.032 -0.532,-0.098 -0.804,-0.198c-0.272,-0.1 -0.49,-0.248 -0.654,-0.444c-0.164,-0.196 -0.314,-0.454 -0.45,-0.774Zm0.366,-5.418c-0.068,0.284 -0.126,0.636 -0.174,1.056c-0.048,0.42 -0.072,0.98 -0.072,1.68c0,0.7 0.044,1.304 0.132,1.812c0.088,0.508 0.252,0.9 0.492,1.176c0.24,0.276 0.52,0.456 0.84,0.54c0.32,0.084 0.728,0.126 1.224,0.126c0.496,0 0.882,-0.028 1.158,-0.084c0.276,-0.056 0.534,-0.162 0.774,-0.318c0.24,-0.156 0.424,-0.378 0.552,-0.666c0.264,-0.608 0.396,-1.548 0.396,-2.82c0,-1.296 -0.108,-2.204 -0.324,-2.724c-0.12,-0.296 -0.246,-0.532 -0.378,-0.708c-0.132,-0.176 -0.318,-0.306 -0.558,-0.39c-0.24,-0.084 -0.466,-0.138 -0.678,-0.162c-0.212,-0.024 -0.48,-0.036 -0.804,-0.036c-0.324,0 -0.572,0.006 -0.744,0.018c-0.172,0.012 -0.37,0.046 -0.594,0.102c-0.224,0.056 -0.4,0.136 -0.528,0.24c-0.128,0.104 -0.262,0.252 -0.402,0.444c-0.14,0.192 -0.244,0.43 -0.312,0.714Zm4.758,8.322c-0.232,0.088 -0.474,0.132 -0.726,0.132c-0.252,0 -0.492,-0.04 -0.72,-0.12c-0.228,-0.08 -0.432,-0.216 -0.612,-0.408c-0.18,-0.192 -0.298,-0.424 -0.354,-0.696l0.324,0c0.152,0.264 0.348,0.452 0.588,0.564c0.24,0.112 0.476,0.168 0.708,0.168c0.232,0 0.496,-0.052 0.792,-0.156l0,0.516Z" style="fill:#321346;fill-rule:nonzero;"/><path d="M112.81,50.957l0,-4.944l0.492,0l0,4.944c0,0.824 0.056,1.478 0.168,1.962c0.112,0.484 0.312,0.826 0.6,1.026c0.288,0.2 0.546,0.32 0.774,0.36c0.228,0.04 0.594,0.06 1.098,0.06l0.012,0c0.92,0 1.524,-0.16 1.812,-0.48c0.36,-0.4 0.584,-0.912 0.672,-1.536c0.056,-0.4 0.084,-0.864 0.084,-1.392l0,-4.944l0.504,0l0,4.944c0,1.264 -0.16,2.176 -0.48,2.736c-0.112,0.192 -0.218,0.354 -0.318,0.486c-0.1,0.132 -0.234,0.242 -0.402,0.33c-0.168,0.088 -0.31,0.154 -0.426,0.198c-0.116,0.044 -0.274,0.078 -0.474,0.102c-0.264,0.032 -0.496,0.048 -0.696,0.048l-0.504,0c-0.136,0 -0.262,-0.002 -0.378,-0.006c-0.116,-0.004 -0.28,-0.016 -0.492,-0.036c-0.212,-0.02 -0.374,-0.052 -0.486,-0.096c-0.112,-0.044 -0.252,-0.112 -0.42,-0.204c-0.168,-0.092 -0.298,-0.202 -0.39,-0.33c-0.092,-0.128 -0.194,-0.29 -0.306,-0.486c-0.112,-0.196 -0.196,-0.422 -0.252,-0.678c-0.128,-0.648 -0.192,-1.336 -0.192,-2.064Z" style="fill:#321346;fill-rule:nonzero;"/><path d="M130.57,53.321l0,-5.748c0,-0.552 0.14,-0.95 0.42,-1.194c0.28,-0.244 0.62,-0.366 1.02,-0.366l0.072,0l3.648,0.144l0,0.348l-3.648,0c-0.68,0 -1.02,0.356 -1.02,1.068l0,2.616l4.188,0.084l0,0.348l-4.188,0.084l0,2.616c0,0.456 0.124,0.748 0.372,0.876c0.2,0.096 0.456,0.144 0.768,0.144l3.528,0l0,0.348l-3.528,0.144c-0.048,0 -0.124,0 -0.228,0c-0.104,0 -0.234,-0.014 -0.39,-0.042c-0.156,-0.028 -0.318,-0.09 -0.486,-0.186c-0.352,-0.2 -0.528,-0.628 -0.528,-1.284Z" style="fill:#321346;fill-rule:nonzero;"/><path d="M146.866,48.869l0,-0.792c0,-0.808 0.202,-1.366 0.606,-1.674c0.404,-0.308 0.986,-0.462 1.746,-0.462c0.76,0 1.68,0.084 2.76,0.252l0,0.348l-2.772,-0.108l-0.168,0c-0.528,0 -0.94,0.112 -1.236,0.336c-0.296,0.224 -0.444,0.66 -0.444,1.308l0,0.792c0,0.56 0.128,0.928 0.384,1.104c0.256,0.176 0.656,0.264 1.2,0.264l1.476,0c0.728,0 1.23,0.168 1.506,0.504c0.276,0.336 0.414,0.792 0.414,1.368l0,0.816c0,0.808 -0.248,1.352 -0.744,1.632c-0.416,0.224 -0.952,0.336 -1.608,0.336c-0.312,0 -0.804,-0.024 -1.476,-0.072c-0.672,-0.048 -1.14,-0.096 -1.404,-0.144l0,-0.372c0.688,0.064 1.402,0.096 2.142,0.096c0.74,0 1.208,-0.018 1.404,-0.054c0.196,-0.036 0.39,-0.102 0.582,-0.198c0.408,-0.208 0.612,-0.616 0.612,-1.224l0,-0.816c0,-0.464 -0.11,-0.808 -0.33,-1.032c-0.22,-0.224 -0.586,-0.336 -1.098,-0.336l-1.452,0c-0.896,0 -1.484,-0.196 -1.764,-0.588c-0.136,-0.192 -0.226,-0.384 -0.27,-0.576c-0.044,-0.192 -0.066,-0.428 -0.066,-0.708Z" style="fill:#321346;fill-rule:nonzero;"/></g></g><g></g><g></g><g></g></svg>