<?xml version="1.0" encoding="UTF-8" standalone="no"?><!DOCTYPE svg PUBLIC "-//W3C//DTD SVG 1.1//EN" "http://www.w3.org/Graphics/SVG/1.1/DTD/svg11.dtd"><svg width="100%" height="100%" viewBox="0 0 159 60" version="1.1" xmlns="http://www.w3.org/2000/svg" xmlns:xlink="http://www.w3.org/1999/xlink" xml:space="preserve" xmlns:serif="http://www.serif.com/" style="fill-rule:evenodd;clip-rule:evenodd;stroke-linecap:round;stroke-linejoin:round;stroke-miterlimit:1.5;"><rect id="accueil" x="-560" y="-705" width="1280" height="800" style="fill:none;"/><g><g><g><path d="M25.638,13.374c2.609,-2.157 5.955,-3.453 9.602,-3.453c8.327,0 15.088,6.761 15.088,15.088c0,8.327 -6.761,15.088 -15.088,15.088c-3.647,0 -6.993,-1.297 -9.602,-3.453c3.349,-2.768 5.485,-6.954 5.485,-11.635c0,-4.681 -2.136,-8.867 -5.485,-11.635Z" style="fill:none;stroke:#fff;stroke-width:1px;"/><path d="M134.235,13.374c-2.61,-2.157 -5.956,-3.453 -9.602,-3.453c-8.327,0 -15.088,6.761 -15.088,15.088c0,8.327 6.761,15.088 15.088,15.088c3.646,0 6.992,-1.297 9.602,-3.453c-3.35,-2.768 -5.486,-6.954 -5.486,-11.635c0,-4.681 2.136,-8.867 5.486,-11.635Z" style="fill:none;stroke:#fff;stroke-width:1px;"/><g><circle cx="80" cy="25.6" r="15.408" style="fill:none;stroke:#fff;stroke-width:0.5px;"/><path d="M80,14.771c5.976,0 10.829,4.852 10.829,10.829c0,5.976 -4.853,10.828 -10.829,10.828c-5.976,0 -10.829,-4.852 -10.829,-10.828c0,-5.977 4.853,-10.829 10.829,-10.829Zm0,4.654c3.408,0 6.175,2.767 6.175,6.175c0,3.408 -2.767,6.175 -6.175,6.175c-3.408,0 -6.175,-2.767 -6.175,-6.175c0,-3.408 2.767,-6.175 6.175,-6.175Z" style="fill:#fff;stroke:#fff;stroke-width:1px;"/><circle cx="80" cy="25.6" r="20.184" style="fill:none;stroke:#fff;stroke-width:1px;"/></g><path d="M1.846,15.12c1.472,-0.667 3.106,-1.038 4.826,-1.038c6.465,0 11.715,5.249 11.715,11.715c0,6.465 -5.25,11.715 -11.715,11.715c-1.72,0 -3.354,-0.372 -4.826,-1.039c4.061,-1.84 6.889,-5.931 6.889,-10.676c0,-4.746 -2.828,-8.836 -6.889,-10.677Z" style="fill:none;stroke:#fff;stroke-width:1px;"/><path d="M158.154,15.12c-1.472,-0.667 -3.106,-1.038 -4.826,-1.038c-6.465,0 -11.715,5.249 -11.715,11.715c0,6.465 5.25,11.715 11.715,11.715c1.72,0 3.354,-0.372 4.826,-1.039c-4.061,-1.84 -6.889,-5.931 -6.889,-10.676c0,-4.746 2.828,-8.836 6.889,-10.677Z" style="fill:none;stroke:#fff;stroke-width:1px;"/><path d="M50.743,25.166l8.814,0" style="fill:none;stroke:#fff;stroke-width:1px;"/><path d="M100.477,25.166l8.814,0" style="fill:none;stroke:#fff;stroke-width:1px;"/><path d="M18.638,25.166l12.458,0" style="fill:none;stroke:#fff;stroke-width:1px;"/><path d="M128.938,25.166l12.459,0" style="fill:none;stroke:#fff;stroke-width:1px;"/></g></g><text x="12.558px" y="58.797px" style="font-family:'Exo-ExtraLight', 'Exo';font-weight:200;font-size:12px;fill:#fff;">C<tspan x="29.022px 45.426px 61.89px 78.186px 90.234px 107.934px 125.694px 142.206px " y="58.797px 58.797px 58.797px 58.797px 58.797px 58.797px 58.797px 58.797px ">YCLIQUES</tspan></text></g></svg>