<?xml version="1.0" encoding="UTF-8" standalone="no"?><!DOCTYPE svg PUBLIC "-//W3C//DTD SVG 1.1//EN" "http://www.w3.org/Graphics/SVG/1.1/DTD/svg11.dtd"><svg width="100%" height="100%" viewBox="0 0 1834 980" version="1.1" xmlns="http://www.w3.org/2000/svg" xmlns:xlink="http://www.w3.org/1999/xlink" xml:space="preserve" xmlns:serif="http://www.serif.com/" style="fill-rule:evenodd;clip-rule:evenodd;stroke-linejoin:round;stroke-miterlimit:2;"><rect id="Plan-de-travail4" serif:id="Plan de travail4" x="-731.318" y="-62.5" width="3266.67" height="3691.67" style="fill:none;"/><path d="M412.296,281.238l22.378,60.476l60.476,22.378l-60.476,22.378l-22.378,60.475l-22.378,-60.475l-60.476,-22.378l60.476,-22.378l22.378,-60.476Z" style="fill:#fff;"/><path d="M225.052,318.231l13.55,36.618l36.618,13.55l-36.618,13.55l-13.55,36.618l-13.55,-36.618l-36.619,-13.55l36.619,-13.55l13.55,-36.618Z" style="fill:#fff;"/><path d="M86.708,336.474l8.623,23.302l23.303,8.623l-23.303,8.623l-8.623,23.302l-8.622,-23.302l-23.303,-8.623l23.303,-8.623l8.622,-23.302Z" style="fill:#fff;"/><path d="M1426.7,279.154l-22.378,60.476l-60.476,22.378l60.476,22.378l22.378,60.476l22.378,-60.476l60.476,-22.378l-60.476,-22.378l-22.378,-60.476Z" style="fill:#fff;"/><path d="M1613.95,316.147l-13.55,36.619l-36.618,13.55l36.618,13.55l13.55,36.618l13.551,-36.618l36.618,-13.55l-36.618,-13.55l-13.551,-36.619Z" style="fill:#fff;"/><path d="M1752.29,334.39l-8.623,23.303l-23.303,8.623l23.303,8.622l8.623,23.303l8.622,-23.303l23.303,-8.622l-23.303,-8.623l-8.622,-23.303Z" style="fill:#fff;"/><path d="M742.27,102.119c54.326,-53.114 128.64,-85.87 210.545,-85.87c166.27,-0 301.26,134.99 301.26,301.26c0,70.765 -24.451,135.863 -65.364,187.307l71.628,26.504l-82.875,30.667l-30.667,82.875l-28.087,-75.905c26.579,-17.579 50.215,-39.26 70.001,-64.141l-11.247,-4.162l-30.667,-82.875l-30.667,82.875l-82.875,30.666l82.875,30.667l2.58,6.97c-19.641,12.989 -40.885,23.74 -63.365,31.887l9.674,26.144l50.181,18.569l-50.181,18.568l-18.569,50.182l-18.569,-50.182l-50.181,-18.568l50.181,-18.569l7.262,-19.625c6.833,-1.939 13.567,-4.114 20.202,-6.519l-8.895,-24.037l-11.307,30.556c-26.185,7.432 -53.796,11.406 -82.328,11.406c-166.27,0 -301.26,-134.99 -301.26,-301.26c-0,-12.786 0.798,-25.387 2.346,-37.742l47.41,-17.544l-41.42,-15.327c7.082,-29.45 18.497,-57.222 33.528,-82.592l-4.995,-13.499l-67.669,-25.04l67.669,-25.04l25.04,-67.668l25.039,67.668l3.767,1.394c-18.865,18.444 -35.319,39.342 -48.851,62.185l20.045,54.169l25.039,-67.668l67.669,-25.04l-63.902,-23.646Zm-88.369,177.648l-2.771,1.025l-18.569,50.181l-18.569,-50.181l-50.181,-18.569l50.181,-18.568l18.569,-50.182l18.569,50.182l8.761,3.241c-2.585,10.748 -4.593,21.714 -5.99,32.871Z" style="fill:#fff;"/><path d="M882.71,824.566l-6.224,16.821l-16.821,6.225l16.821,6.224l6.224,16.822l6.225,-16.822l16.821,-6.224l-16.821,-6.225l-6.225,-16.821Z" style="fill:#fff;"/><path d="M1490.72,822.014l-6.224,16.821l-16.821,6.225l16.821,6.224l6.224,16.822l6.225,-16.822l16.821,-6.224l-16.821,-6.225l-6.225,-16.821Z" style="fill:#fff;"/><g><path d="M436.907,949.79c-7.572,-0 -15.382,-0.568 -23.428,-1.704c-6.532,-0.379 -11.123,-1.846 -13.774,-4.402c-1.988,-1.893 -2.982,-4.165 -2.982,-6.816c-0.189,-27.452 -1.183,-63.897 -2.982,-109.335c-1.23,-35.972 -1.845,-57.034 -1.845,-63.187c-0,-6.248 3.029,-10.555 9.087,-12.921c7.384,-4.26 19.548,-6.39 36.492,-6.39c0.663,-0 3.763,0.024 9.301,0.071c5.538,0.047 15.927,1.349 31.168,3.905c1.609,0.284 2.816,0.97 3.62,2.059c0.805,1.088 1.207,2.201 1.207,3.337c0,3.313 -0.946,5.632 -2.839,6.957c-1.042,0.663 -2.178,0.994 -3.408,0.994l-0.852,0c-15.43,-2.556 -27.973,-3.834 -37.629,-3.834l-0.994,0l0,2.13c-0.662,8.425 -0.993,35.925 -0.993,82.498l0.142,25.701l34.078,0c1.515,0 2.84,0.545 3.976,1.633c1.136,1.089 1.704,2.438 1.704,4.047l-0,2.272c-0,1.514 -0.568,2.84 -1.704,3.976c-1.136,1.136 -2.461,1.704 -3.976,1.704l-34.078,-0c-0,30.67 -0.426,48.561 -1.278,53.673c15.998,0 31.001,-1.562 45.012,-4.686l1.277,-0.142c1.042,0 2.107,0.355 3.195,1.065c1.089,0.71 2.012,2.485 2.769,5.325l0.142,1.562c0,2.84 -1.467,4.686 -4.402,5.538c-2.934,0.568 -6.721,1.23 -11.359,1.988c-11.17,1.988 -22.719,2.982 -34.647,2.982Z" style="fill:#fff;fill-rule:nonzero;"/><path d="M610.85,952.913l-9.94,0c-2.177,-0.094 -4.378,-0.757 -6.603,-1.988c-2.224,-1.23 -4.236,-2.745 -6.034,-4.543c-1.799,-1.799 -3.124,-3.597 -3.976,-5.396l-50.834,-129.214l-0.142,5.396c-0.379,19.973 -0.568,37.249 -0.568,51.827c0,27.736 0.757,50.834 2.272,69.293l-0,0.284c-0,2.177 -1.609,4.165 -4.828,5.964c-1.893,1.136 -3.644,1.704 -5.254,1.704c-1.419,-0 -2.792,-0.474 -4.117,-1.42c-2.84,-1.988 -5.017,-16.755 -6.532,-44.302c-1.231,-22.435 -1.846,-48.089 -1.846,-76.961c0,-22.813 0.331,-44.112 0.994,-63.897c0.095,-4.165 1.562,-7.762 4.402,-10.791c2.65,-2.461 5.585,-3.692 8.803,-3.692l10.65,-0c0.852,-0 2.295,0.213 4.331,0.639c2.035,0.426 4.188,1.112 6.46,2.059c5.491,2.366 8.899,5.254 10.224,8.661l49.556,136.03c1.325,-21.11 1.988,-43.923 1.988,-68.441c-0,-20.92 -0.616,-42.408 -1.846,-64.465c-0,-2.461 1.656,-4.544 4.969,-6.247c1.799,-0.947 3.503,-1.42 5.112,-1.42c1.515,-0 2.935,0.497 4.26,1.491c1.325,0.994 2.177,2.484 2.556,4.472c2.65,21.394 3.976,47 3.976,76.819c-0,19.027 -0.521,38.196 -1.562,57.507c-1.231,22.151 -2.319,37.534 -3.266,46.148c-0.095,4.26 -1.609,7.857 -4.544,10.792c-2.556,2.461 -5.443,3.691 -8.661,3.691Z" style="fill:#fff;fill-rule:nonzero;"/><path d="M689.372,952.061c-5.964,0 -11.218,-0.568 -15.761,-1.703c-10.319,-2.462 -15.478,-7.005 -15.478,-13.632c0,-22.719 -1.325,-58.454 -3.975,-107.205c-1.515,-27.736 -2.367,-48.325 -2.556,-61.767c-0,-6.153 2.224,-11.502 6.673,-16.045c2.178,-2.178 4.733,-3.858 7.668,-5.041c2.935,-1.183 6.579,-1.775 10.933,-1.775c3.503,-0 6.58,0.568 9.23,1.704c6.342,2.65 9.94,7.194 10.792,13.631c7.383,-9.182 16.471,-13.962 27.262,-14.341c9.561,-0 19.027,4.97 28.399,14.909c6.342,7.005 11.123,15.714 14.341,26.127c3.692,12.117 5.538,25.512 5.538,40.184c0,23.098 -3.976,45.296 -11.927,66.595c-14.578,38.906 -38.291,58.359 -71.139,58.359Zm7.952,-20.163c2.366,0 5.301,-0.568 8.803,-1.704c7.668,-2.555 14.247,-7.549 19.737,-14.98c5.491,-7.431 10.271,-16.258 14.342,-26.482c8.993,-22.34 13.489,-44.964 13.489,-67.873c-0,-23.381 -5.632,-40.326 -16.897,-50.833c-5.491,-4.923 -10.129,-7.384 -13.916,-7.384c-6.531,0 -12.069,2.745 -16.613,8.236c-6.626,7.951 -10.034,18.459 -10.223,31.522l0.142,80.085c-0,21.299 -0.237,37.628 -0.71,48.987c-0,0.284 0.615,0.426 1.846,0.426Z" style="fill:#fff;fill-rule:nonzero;"/><path d="M1011,952.345c-13.158,0 -22.151,-1.23 -26.979,-3.691c-5.396,-2.84 -8.141,-6.674 -8.236,-11.502c-0.094,-23.855 -1.467,-60.726 -4.118,-110.613c-1.798,-32.469 -2.697,-53.721 -2.697,-63.755c-0,-3.124 0.615,-6.106 1.845,-8.945c2.462,-5.87 6.721,-10.082 12.78,-12.638c3.124,-1.23 6.958,-1.846 11.501,-1.846c4.639,0 8.567,0.899 11.786,2.698c4.544,2.745 7.383,6.626 8.519,11.644c7.195,-5.87 15.004,-8.804 23.429,-8.804c11.454,-0 20.637,5.254 27.547,15.761c4.828,7.573 7.242,16.613 7.242,27.121c-0,7.668 -1.278,15.241 -3.834,22.719c-3.787,10.697 -9.75,19.122 -17.891,25.275c7.099,2.745 13.631,7.005 19.595,12.779c3.408,3.313 6.342,7.479 8.803,12.496c3.787,8.046 5.68,16.897 5.68,26.552c0,2.84 -0.284,6.627 -0.852,11.36c-0.568,4.733 -2.366,10.271 -5.396,16.613c-5.49,12.022 -14.625,21.346 -27.404,27.973c-11.076,5.774 -24.849,8.709 -41.32,8.803Zm4.543,-122.256c3.314,0 7.337,-0.615 12.07,-1.846c7.951,-2.272 14.152,-6.153 18.601,-11.643c2.367,-3.124 4.354,-6.769 5.964,-10.934c2.556,-6.437 3.834,-12.874 3.834,-19.311c-0,-7.1 -1.562,-13.111 -4.686,-18.033c-4.071,-6.248 -8.567,-9.372 -13.49,-9.372c-4.638,0 -9.182,1.894 -13.631,5.68c-6.153,5.206 -9.277,12.353 -9.372,21.441l-0.142,26.979l0.142,17.039l0.71,0Zm2.13,105.359c0.852,0 2.651,-0.236 5.396,-0.71c6.816,-1.136 13.205,-3.408 19.169,-6.815c7.573,-4.45 13.064,-10.555 16.471,-18.318c4.071,-9.655 6.106,-19.169 6.106,-28.54c0,-3.219 -0.379,-6.958 -1.136,-11.218c-1.42,-7.289 -6.957,-13.773 -16.613,-19.453c-5.301,-3.124 -10.981,-4.686 -17.039,-4.686l-1.704,0.142c-1.988,0.284 -4.023,0.426 -6.106,0.426c-3.408,0.663 -5.869,1.278 -7.384,1.846l0,24.565c0,28.493 -0.284,49.319 -0.852,62.477c0,0.19 0.71,0.284 2.13,0.284l1.562,0Z" style="fill:#fff;fill-rule:nonzero;"/><path d="M1232.51,956.037l-5.111,0c-4.733,0 -8.757,-1.278 -12.07,-3.834c-3.313,-2.555 -5.159,-5.774 -5.538,-9.655l-1.419,-26.695c-3.314,7.952 -7.763,14.625 -13.348,20.021c-8.519,8.046 -19.169,12.07 -31.948,12.07c-3.882,-0 -7.952,-0.426 -12.212,-1.278c-23.855,-4.165 -38.622,-29.535 -44.302,-76.109c-1.42,-13.158 -2.13,-31.002 -2.13,-53.531c0,-6.721 0.095,-12.78 0.284,-18.176c0.379,-18.364 0.805,-30.481 1.278,-36.35c0.474,-5.869 1.136,-9.608 1.988,-11.217c1.42,-2.746 6.721,-4.686 15.903,-5.822c2.651,-0 6.153,0.237 10.508,0.71c3.218,0.379 5.751,1.727 7.597,4.047c1.846,2.319 2.768,5.04 2.768,8.164c-2.177,34.457 -3.265,60.821 -3.265,79.091c-0,14.104 0.615,27.736 1.846,40.894c3.123,33.132 10.223,51.212 21.299,54.241c2.177,0.568 4.212,0.852 6.105,0.852l1.136,0c11.36,-2.461 20.211,-10.862 26.553,-25.204c6.342,-14.341 9.892,-32.066 10.65,-53.176c-0.19,-24.328 -0.521,-45.201 -0.994,-62.619c-0.284,-11.36 -0.426,-20.258 -0.426,-26.695c-0.095,-1.609 -0.213,-3.077 -0.355,-4.402c-0.142,-1.325 -0.213,-2.508 -0.213,-3.55c-0,-0.662 0.047,-1.585 0.142,-2.769c0.094,-1.183 0.757,-2.484 1.988,-3.904c4.354,-4.165 10.365,-6.248 18.033,-6.248c6.247,-0 11.004,1.799 14.27,5.396c3.266,3.597 4.899,7.762 4.899,12.495c-0.663,21.015 -0.994,40.8 -0.994,59.353l0.142,52.254c-0,30.387 -0.284,52.348 -0.852,65.885c-0.379,9.182 -4.449,14.436 -12.212,15.761Z" style="fill:#fff;fill-rule:nonzero;"/><path d="M1307.2,951.067c-12.969,0 -23.05,-4.638 -30.245,-13.915c-8.046,-10.602 -12.069,-25.417 -12.069,-44.444c-0,-14.294 1.373,-22.387 4.118,-24.281c1.136,-0.946 2.461,-1.42 3.976,-1.42c2.271,0 4.117,0.947 5.537,2.84c0.852,1.231 1.278,2.556 1.278,3.976l0,0.852c-0.852,6.342 -1.278,12.353 -1.278,18.033c0,4.923 0.497,10.839 1.491,17.749c0.994,6.911 3.597,13.111 7.81,18.602c4.212,5.49 9.916,8.235 17.11,8.235c4.165,0 7.857,-1.562 11.076,-4.686c12.4,-11.264 18.601,-42.692 18.601,-94.283c-0,-20.353 -1.231,-45.202 -3.692,-74.547l-0.284,-3.834l-39.474,0c-1.893,0 -3.503,-0.662 -4.828,-1.988c-1.325,-1.325 -1.988,-2.887 -1.988,-4.685c0,-1.894 0.663,-3.503 1.988,-4.828c1.325,-1.325 2.935,-1.988 4.828,-1.988l49.981,-0l15.62,0.994c2.177,-0 5.348,0.71 9.513,2.13c6.153,2.177 9.419,5.443 9.798,9.797c0.663,11.928 0.994,22.767 0.994,32.517l-0,10.081c-0,7.005 -0.048,14.342 -0.142,22.009c-1.041,69.104 -16.187,109.761 -45.438,121.973c-7.857,3.408 -15.951,5.111 -24.281,5.111Z" style="fill:#fff;fill-rule:nonzero;"/></g><path d="M874.016,745.211c-48.066,4.118 -87.089,48.013 -87.089,101.125c0,53.111 39.023,97.006 87.089,101.125c-17.078,-23.195 -30.944,-60.523 -30.944,-101.125c0,-40.603 13.866,-77.93 30.944,-101.125Z" style="fill:#fff;"/><path d="M1478.28,745.53c-48.065,4.118 -87.089,48.013 -87.089,101.125c0,53.111 39.024,97.006 87.089,101.125c-17.078,-23.195 -30.944,-60.523 -30.944,-101.125c0,-40.603 13.866,-77.93 30.944,-101.125Z" style="fill:#fff;"/></svg>