<?xml version="1.0" encoding="UTF-8" standalone="no"?><!DOCTYPE svg PUBLIC "-//W3C//DTD SVG 1.1//EN" "http://www.w3.org/Graphics/SVG/1.1/DTD/svg11.dtd"><svg width="100%" height="100%" viewBox="0 0 263 263" version="1.1" xmlns="http://www.w3.org/2000/svg" xmlns:xlink="http://www.w3.org/1999/xlink" xml:space="preserve" xmlns:serif="http://www.serif.com/" style="fill-rule:evenodd;clip-rule:evenodd;stroke-linejoin:round;stroke-miterlimit:2;"><rect id="Plan-de-travail4" serif:id="Plan de travail4" x="0" y="0" width="262.5" height="262.5" style="fill:none;"/><path d="M186.095,56.187l14.783,39.951l39.951,14.784l-39.951,14.783l-14.783,39.951l-14.783,-39.951l-39.951,-14.783l39.951,-14.784l14.783,-39.951Z" style="fill:#321346;"/><path d="M98.417,124.045l14.952,40.405l40.405,14.951l-40.405,14.951l-14.952,40.405l-14.951,-40.405l-40.405,-14.951l40.405,-14.951l14.951,-40.405Z" style="fill:#321346;"/><path d="M87.6,27.989l9.071,24.516l24.516,9.071l-24.516,9.072l-9.071,24.515l-9.072,-24.515l-24.515,-9.072l24.515,-9.071l9.072,-24.516Z" style="fill:#321346;"/></svg>